<?xml version="1.0" encoding="UTF-8" standalone="no"?>
<!-- Created with Inkscape (http://www.inkscape.org/) -->

<svg
   xmlns:dc="http://purl.org/dc/elements/1.1/"
   xmlns:cc="http://creativecommons.org/ns#"
   xmlns:rdf="http://www.w3.org/1999/02/22-rdf-syntax-ns#"
   xmlns:svg="http://www.w3.org/2000/svg"
   xmlns="http://www.w3.org/2000/svg"
   xmlns:sodipodi="http://sodipodi.sourceforge.net/DTD/sodipodi-0.dtd"
   xmlns:inkscape="http://www.inkscape.org/namespaces/inkscape"
   width="6.4048185mm"
   height="3.6430845mm"
   viewBox="0 0 6.4048185 3.6430845"
   version="1.1"
   id="svg8"
   inkscape:version="0.92.3 (2405546, 2018-03-11)"
   sodipodi:docname="ok.svg">
  <defs
     id="defs2" />
  <sodipodi:namedview
     id="base"
     pagecolor="#ffffff"
     bordercolor="#666666"
     borderopacity="1.0"
     inkscape:pageopacity="0.0"
     inkscape:pageshadow="2"
     inkscape:zoom="20.48"
     inkscape:cx="11.322772"
     inkscape:cy="12.661957"
     inkscape:document-units="mm"
     inkscape:current-layer="layer1"
     showgrid="false"
     fit-margin-top="-0.1"
     fit-margin-left="0"
     fit-margin-right="0"
     fit-margin-bottom="0"
     inkscape:window-width="1366"
     inkscape:window-height="715"
     inkscape:window-x="-8"
     inkscape:window-y="-8"
     inkscape:window-maximized="1" />
  <metadata
     id="metadata5">
    <rdf:RDF>
      <cc:Work
         rdf:about="">
        <dc:format>image/svg+xml</dc:format>
        <dc:type
           rdf:resource="http://purl.org/dc/dcmitype/StillImage" />
        <dc:title></dc:title>
      </cc:Work>
    </rdf:RDF>
  </metadata>
  <g
     inkscape:label="Layer 1"
     inkscape:groupmode="layer"
     id="layer1"
     transform="translate(1068.4429,-560.29494)">
    <path
       style="fill:#000000;stroke-width:0.00372125"
       d="m -1062.2954,563.9334 c -0.01,-0.004 -0.017,-0.006 -0.02,-0.003 -0.01,0.007 -0.032,0.006 -0.039,-0.002 0,-0.004 -0.01,-0.007 -0.015,-0.006 -0.016,0.002 -0.043,-0.005 -0.043,-0.0101 0,-0.007 -0.01,-0.008 -0.046,-0.009 -0.017,-3.8e-4 -0.034,-0.002 -0.036,-0.004 0,-0.002 -0.01,-0.002 -0.012,-6.3e-4 0,10e-4 -0.011,-7e-5 -0.017,-0.004 -0.01,-0.003 -0.011,-0.005 -0.013,-0.004 0,10e-4 -0.01,-0.003 -0.01,-0.009 0,-0.006 -0.01,-0.0114 -0.01,-0.0115 0,-1.3e-4 -0.017,-0.0136 -0.027,-0.0266 0,-0.003 -0.01,-0.0109 -0.01,-0.0167 0,-0.012 -0.011,-0.0236 -0.019,-0.0236 0,0 -0.01,-0.002 -0.01,-0.004 0,-0.002 0,-0.003 -0.01,-0.002 -0.01,0.002 -0.01,-0.009 -0.01,-0.0272 -10e-5,-0.008 0,-0.0132 -0.01,-0.0161 -0.01,-0.003 -0.01,-0.007 -0.01,-0.0159 0,-0.0161 -0.011,-0.0428 -0.021,-0.0442 -0.01,-10e-4 -0.012,-0.0141 0,-0.0202 0.01,-0.005 0,-0.0162 0,-0.0162 -0.01,0 -0.018,-0.0254 -0.015,-0.0489 0,-0.0139 9e-4,-0.024 0,-0.0296 0,-0.005 0,-0.009 -9e-4,-0.01 0,-6.8e-4 0,-0.005 0,-0.0104 -10e-4,-0.005 9e-4,-0.0133 0,-0.0184 0,-0.005 0.01,-0.0116 0.01,-0.0145 0,-0.003 0,-0.0101 0.01,-0.0159 0,-0.006 0.01,-0.0137 0.01,-0.0174 0,-0.004 0,-0.0122 0.01,-0.019 0.01,-0.007 0.01,-0.0149 0.01,-0.0182 0,-0.003 0,-0.009 0.01,-0.0136 0,-0.004 0.01,-0.009 0.01,-0.0104 0,-0.002 0,-7.3e-4 0,0.002 -9e-4,0.003 0,0.004 -0.01,0.003 -0.01,-0.005 0,-0.0229 0.025,-0.0452 0.013,-0.0129 0.023,-0.0235 0.022,-0.0235 -0.01,0 0.01,-0.017 0.025,-0.0289 0.012,-0.009 0.019,-0.0175 0.021,-0.0241 0,-0.008 0,-0.0102 0.011,-0.0102 0,0 0.011,-0.004 0.014,-0.009 0,-0.007 0.01,-0.009 0.03,-0.0115 0.013,-10e-4 0.025,-0.004 0.026,-0.006 0,-0.005 0.027,-0.004 0.029,10e-4 0,0.003 0,0.002 0.01,-0.004 0.01,-0.007 0.01,-0.008 0.036,-0.008 0.024,0 0.03,0.001 0.03,0.006 0,0.003 0,0.006 0.01,0.006 0,0 0.01,0.002 0.011,0.003 0,0.002 0.01,0.003 0.01,0.003 0,0 0.013,3e-4 0.022,6.7e-4 0.01,3.8e-4 0.019,-10e-4 0.023,-0.003 0,-0.002 0.01,-0.004 0.011,-0.004 0,0 0.02,0.0337 0.02,0.0404 0,0.002 0.01,0.004 0.016,0.003 0.015,-8e-4 0.016,-1.5e-4 0.02,0.0117 0,0.0101 0,0.0113 0.01,0.006 0,-0.006 0.01,-0.004 0.02,0.0116 0.01,0.01 0.019,0.0178 0.02,0.0173 0,-5.1e-4 0,0.001 0,0.004 2e-4,0.003 6e-4,0.009 10e-4,0.0143 8e-4,0.0108 0.019,0.0339 0.031,0.0397 0.01,0.004 0.017,0.0262 0.017,0.0434 0,0.006 0,0.0126 0.01,0.0156 0,0.003 0.01,0.01 0.01,0.0146 0,0.005 0,0.009 0,0.009 0,0 0,0.005 0.01,0.0109 0,0.006 0,0.0118 0.01,0.013 0,10e-4 0.01,0.007 0.01,0.0128 0,0.006 0.01,0.0124 0.012,0.0146 0.017,0.008 0.025,0.0463 0.011,0.0518 -0.01,0.003 -0.01,0.0185 8e-4,0.0212 0,0.002 0.01,0.007 0,0.0218 -5e-4,0.0107 3e-4,0.0225 0,0.0262 0.01,0.0152 -0.01,0.0659 -0.022,0.0659 -0.01,0 -0.01,0.01 0,0.0234 0,0.009 0,0.0107 0,0.0125 0,10e-4 0,0.003 0,0.005 0,0.002 2e-4,0.004 0,0.005 0,10e-4 0,0.004 0,0.006 0,0.002 0,0.007 -0.01,0.0109 0,0.004 -0.01,0.0119 -0.01,0.0172 0,0.0129 -0.021,0.0462 -0.035,0.0555 -0.01,0.004 -0.013,0.0106 -0.015,0.0145 0,0.009 -0.026,0.0285 -0.037,0.0344 0,0.002 -0.026,0.005 -0.048,0.006 -0.033,10e-4 -0.043,2.6e-4 -0.055,-0.005 z m -0.3602,-0.30296 c 0,-0.003 0,-0.005 0,-0.003 0,10e-4 0,0.005 0,0.008 0,0.003 0,0.005 0,0.003 0,-10e-4 0,-0.005 0,-0.008 z m 0.2927,-0.29261 c -10e-4,-0.003 0,-4.7e-4 0,0.005 0,0.005 9e-4,0.007 0,0.005 10e-4,-0.003 10e-4,-0.007 0,-0.009 z m -0.9635,0.53035 c -0.01,-0.001 -0.014,-0.003 -0.014,-0.008 0,-0.004 0,-0.005 0,-0.002 0,0.003 -0.01,0.002 -0.015,-0.002 -0.01,-0.005 -0.011,-0.009 -0.011,-0.0171 0,-0.009 -10e-4,-0.01 0,-0.007 -0.01,0.006 -0.01,0.006 -0.01,-10e-4 0,-0.008 0,-0.007 -0.015,0.002 -0.011,0.009 -0.019,0.009 -0.037,2e-4 -0.01,-0.004 -0.015,-0.006 -0.018,-0.004 0,0.002 -0.01,0.004 -0.011,0.005 0,6.3e-4 -0.01,0.002 -0.012,0.004 0,0.002 -0.01,4.2e-4 -0.01,-0.004 0,-0.009 -0.016,-0.026 -0.028,-0.0388 l -0.01,-0.0103 v 0.009 c 0,0.0106 -0.01,0.0119 -0.012,0.003 0,-0.004 -0.01,-0.011 -0.01,-0.0164 0,-0.005 -0.01,-0.0118 0,-0.0142 0,-0.002 2e-4,-0.006 0,-0.009 -0.01,-0.005 -0.015,-0.0328 -0.01,-0.0371 0,-0.004 -0.01,-0.0324 -0.016,-0.0324 0,0 -0.01,0.004 -0.01,0.01 -7e-4,0.005 0,0.0107 -0.01,0.0117 0,10e-4 0,-10e-4 0,-0.0137 0,-0.0122 0,-0.0154 0,-0.0154 -0.01,0 -0.014,-0.0134 -0.01,-0.0217 0,-0.004 0,-0.01 0,-0.014 0,-0.006 0,-0.005 -0.01,0.005 -0.01,0.0123 -0.016,0.0167 -0.016,0.007 0,-0.003 0,-0.006 -0.01,-0.006 0,0 -0.01,0.002 -0.01,0.004 0,0.002 0,0.003 0,0.002 0,-10e-4 0,-0.006 0,-0.01 0,-0.006 -10e-4,-0.007 -0.01,-0.003 0,0.004 -0.01,0.003 -0.01,-0.005 0,-0.0102 0,-0.036 0,-0.036 0,0 0,0.007 0.01,0.0158 v 0.0158 l 4e-4,-0.0137 c 2e-4,-0.008 0,-0.0162 0,-0.0193 0,-0.003 0,-0.009 -0.01,-0.0123 0,-0.004 -0.01,-0.01 -0.01,-0.0132 0,-0.004 0,-0.007 -0.01,-0.007 -0.01,0 -0.018,-0.0139 -0.016,-0.0225 0,-0.005 -8e-4,-0.0103 -0.01,-0.0158 -0.01,-0.004 -0.01,-0.0103 -0.01,-0.0132 0,-0.008 -0.01,-0.0342 -0.011,-0.0342 0,0 -0.01,0.002 -0.01,0.004 0,0.002 0,0.004 -0.01,0.004 0,0 -0.01,-0.003 -0.01,-0.009 0,-0.005 0,-0.0137 -0.01,-0.0195 -0.015,-0.0184 -0.022,-0.038 -0.02,-0.0557 10e-4,-0.009 3e-4,-0.0162 0,-0.0162 0,0 0,-0.003 0,-0.006 0,-0.004 0,-0.005 -0.01,-0.003 -0.013,0.005 -0.018,0.004 -0.019,-0.007 -9e-4,-0.008 0,-0.01 -0.01,-0.008 -0.01,0.003 -0.011,-4.8e-4 -0.013,-0.0255 0,-0.0235 0,-0.0284 -0.012,-0.0284 0,0 -0.01,-0.002 -0.01,-0.003 0,-0.002 0,-0.002 0.01,-10e-4 0.012,0.003 0.01,-0.007 -0.01,-0.0291 -0.01,-0.0109 -0.015,-0.0213 -0.015,-0.0232 0,-0.002 -0.01,-0.002 -0.011,-0.001 -0.013,0.003 -0.013,0.003 0,-0.0172 0.013,-0.0262 0.015,-0.0357 0.01,-0.0401 -0.01,-0.003 -0.01,-0.003 -0.01,0.008 -10e-5,0.0175 -0.01,0.0248 -0.011,0.0148 0,-0.009 -0.01,-0.0268 0,-0.0268 0,0 0,-0.006 0,-0.0132 0,-0.0152 -0.01,-0.0154 -0.012,-3.5e-4 0,0.01 0,0.01 -0.011,0.004 -0.01,-0.005 -0.01,-0.008 -0.01,-0.0187 0,-0.01 0,-0.0126 0,-0.0126 0,0 -0.01,-0.004 -0.01,-0.0149 0,-0.008 0,-0.0211 -0.01,-0.0288 0,-0.008 -0.01,-0.0181 -0.01,-0.0232 -10e-5,-0.008 -6e-4,-0.009 0,-0.003 0,0.009 -0.01,0.008 -0.013,-9.3e-4 0,-0.004 0,-0.007 -0.01,-0.007 -0.01,0 -0.01,-0.008 0,-0.0244 0.01,-0.0179 0.01,-0.0292 0,-0.0194 0,0.004 -0.01,0.007 -0.01,0.007 0,0 -0.01,-0.003 0,-0.007 0,-0.0143 -1e-4,-0.0167 -0.01,-0.0149 -0.01,10e-4 -0.01,0 -0.012,-0.007 0,-0.005 0,-0.0115 0,-0.0153 0,-0.0163 -3e-4,-0.0388 0,-0.0369 0,0.002 -0.01,-0.0152 -0.01,-0.0218 4e-4,-0.002 -3e-4,-0.008 0,-0.013 0,-0.008 0,-0.009 -0.01,-0.003 0,0.004 0,0.006 -0.01,0.006 -0.01,0 -0.016,-0.0403 -0.014,-0.0529 v -0.0122 l -0.01,0.009 c 0,0.005 -0.01,0.0121 -0.01,0.0155 -1e-4,0.009 0,0.018 -0.01,0.018 0,0 -0.01,-0.003 -0.011,-0.007 -0.01,-0.008 -0.01,-0.0181 0,-0.0284 0,-0.005 0,-0.008 0,-0.0149 0,-0.009 -0.019,-0.0131 -0.019,-0.005 0,0.007 -0.01,0.004 -0.012,-0.003 0,-0.005 0,-0.012 0.011,-0.0212 0.012,-0.013 0.013,-0.02 0.01,-0.02 0,0 0,0.003 0,0.006 0,0.0121 -0.01,0.002 -0.01,-0.011 -10e-4,-0.0116 0,-0.0135 -0.01,-0.0116 -0.01,0.002 -0.01,-5.4e-4 -0.011,-0.0128 0,-0.0105 0,-0.0173 -2e-4,-0.0223 0.01,-0.01 0,-0.0116 0,-0.009 0,0.002 -0.01,-10e-4 -0.01,-0.0164 0,-0.0218 -0.01,-0.0332 -0.017,-0.0221 -0.01,0.009 -0.01,0.008 -0.01,-0.003 0,-0.005 0,-0.0114 -0.01,-0.0143 0,-0.004 0,-0.01 0,-0.0203 0,-0.009 4e-4,-0.016 0,-0.0175 0,-0.001 0,-0.006 0,-0.01 0,-0.005 0,-0.007 -0.01,-0.007 -0.01,0 -0.01,-0.002 -0.01,-0.0484 2e-4,-0.0124 -7e-4,-0.0153 0,-0.0112 0,0.003 0,0.009 0,0.014 0,0.005 0,0.008 -0.01,0.008 0,0 -0.01,-0.003 0,-0.0173 0,-0.01 2e-4,-0.0215 0,-0.0266 -0.01,-0.0152 -0.025,-0.0374 -0.034,-0.0387 -0.01,-9.1e-4 -0.01,-0.005 -0.011,-0.017 0,-0.0188 -0.01,-0.0206 -0.011,-0.004 -8e-4,0.007 0,10e-4 -5e-4,-0.012 5e-4,-0.0132 0,-0.0246 0,-0.0253 0.01,-0.002 -0.01,-0.0237 -0.016,-0.0304 0,-0.003 -0.014,-0.005 -0.021,-0.006 -0.012,-1.7e-4 -0.013,-0.001 -0.013,-0.0104 5e-4,-0.008 -8e-4,-0.0102 -0.01,-0.0102 -0.011,0 -0.015,-0.005 -0.01,-0.0125 0,-0.003 0,-0.007 0,-0.008 0,-10e-4 0,-0.008 0,-0.0149 0,-0.007 0,-0.0137 0,-0.015 0,-10e-4 0,-0.005 0,-0.009 0,-0.009 0,-0.0268 -0.01,-0.033 0,-0.003 -0.01,-0.009 -0.01,-0.0123 0,-0.004 0,-0.008 0,-0.009 0,-10e-4 0,0.003 0,0.01 -10e-5,0.0254 -0.016,0.0294 -0.02,0.005 0,-0.0139 -0.01,-0.0172 -0.011,-0.008 0,0.003 0,0.006 -0.01,0.006 -0.01,0 -0.01,-0.014 0,-0.0292 0,-0.009 0,-0.0201 8e-4,-0.029 0,-0.0142 0,-0.0142 -0.01,-0.005 0,0.005 0,0.014 -0.01,0.0198 0,0.007 0,0.0101 -0.01,0.009 0,-8.9e-4 -0.01,-0.006 -0.01,-0.0224 -6e-4,-0.0139 0,-0.0248 -0.01,-0.0316 0,-0.006 -0.01,-0.0142 -0.01,-0.0188 0,-0.01 -0.01,-0.0111 -0.01,-0.002 -9e-4,0.0134 0,0.0157 0,0.0159 -0.01,4.1e-4 -0.013,-0.006 -0.019,-0.0206 0,-0.008 -0.01,-0.0177 -0.013,-0.0212 0,-0.003 -0.01,-0.008 -0.01,-0.0106 0,-0.003 -0.01,-0.003 -0.023,10e-4 -0.023,0.006 -0.028,0.004 -0.024,-0.0125 0,-0.0128 0,-0.008 -0.01,0.007 -0.013,0.0286 -0.03,0.0228 -0.018,-0.006 0.01,-0.0142 0.01,-0.0205 0,-0.0309 v -0.013 0.0106 c 0,0.006 -0.01,0.0126 -0.01,0.015 0,0.004 -0.01,0.006 0,0.0148 0,0.0131 0,0.0173 10e-5,0.0173 0,0 -0.01,0.004 -0.014,0.009 -0.012,0.0109 -0.019,0.012 -0.019,0.003 -2e-4,-0.004 0,-10e-4 -0.01,0.007 0,0.007 -0.01,0.0132 -0.012,0.0135 0,2.7e-4 -0.01,6.9e-4 -0.01,9.3e-4 0,2.3e-4 -0.01,0.005 -0.01,0.0116 0,0.009 -0.01,0.0109 -0.015,0.01 -0.011,-10e-4 -0.025,0.008 -0.033,0.0221 0,0.004 -0.01,0.009 -0.013,0.0116 0,0.002 -0.01,0.007 -0.011,0.009 0,0.005 -0.01,0.0337 -0.01,0.0619 -6e-4,0.007 0,0.0168 -0.01,0.0223 -0.01,0.0154 -0.035,0.0386 -0.039,0.0361 0,-10e-4 -0.01,0.003 -0.01,0.0105 0,0.009 -0.01,0.0123 -0.013,0.0109 0,-0.001 -0.01,2.8e-4 -0.01,0.005 0,0.017 0,0.0262 -0.01,0.0344 0,0.008 0,0.009 0.01,0.006 0.013,-0.004 0.011,0.015 0,0.0281 -0.01,0.007 -0.012,0.0156 -0.014,0.0274 0,0.011 0,0.017 -0.01,0.017 -0.012,0 -0.028,0.0176 -0.041,0.0437 -0.01,0.015 -0.014,0.0263 -0.016,0.0253 0,-10e-4 0,7e-4 -0.01,0.004 0,0.009 0,0.0127 0,0.0127 0,0 0.01,0.004 0.01,0.0147 0,0.008 0,0.0157 0,0.017 0,10e-4 0,-3.2e-4 0,-0.004 0,-0.003 0,-0.006 0,-0.006 0,0 0,-6.5e-4 -2e-4,0.0218 0,0.0101 -0.01,0.0214 -0.011,0.0249 -0.01,0.007 -0.01,0.0257 0,0.0296 0,0.002 0,0.005 -5e-4,0.0101 0,0.005 0,0.0149 0,0.0267 0,0.0104 0,0.0282 0,0.0394 0,0.0293 0,0.0333 0.016,0.017 0.011,-0.0159 0.015,-0.0167 0.019,-0.003 0,0.007 -10e-5,0.0151 -0.01,0.0279 -0.01,0.0149 -0.01,0.0201 -0.01,0.0318 0,0.014 0,0.0569 8e-4,0.0446 -9e-4,-0.004 0,-0.007 -0.01,-0.007 -0.01,0 -0.01,0.0253 -0.01,0.0535 4e-4,0.006 0,0.0122 0,0.0139 0,0.002 0,0.003 0,0.003 0,4e-5 0.01,0.003 0.01,0.006 0,0.009 0,0.0269 0,0.0296 0,0.002 0,0.004 4e-4,0.008 0,0.006 0,0.0341 -0.01,0.0716 0,0.006 -8e-4,0.0121 0,0.0135 0,10e-4 0,0.006 0,0.0104 0,0.006 10e-4,0.007 0,0.003 0,-0.003 0,-0.007 4e-4,-0.0152 -0.01,-0.0137 4e-4,-0.0246 0.01,-0.0136 0.01,0.0127 0.01,0.0395 8e-4,0.0447 -0.01,0.006 0,0.0204 0.01,0.0341 0.012,0.0129 0.013,0.0364 0,0.0424 -0.01,0.003 -0.01,0.008 -0.01,0.0225 0,0.0106 0,0.0185 0,0.0185 0,0 0,0.01 0,0.0276 0,0.0209 0,0.0301 -0.01,0.0377 -0.01,0.0105 -0.011,0.024 0,0.024 0,0 0,-10e-4 0,-0.003 0,-0.002 0,-0.005 0,-0.008 0,-0.005 0,-0.005 0.01,0.002 0,0.006 0.01,0.006 0.01,0.002 0,-0.004 0,-0.003 0.01,0.004 0,0.008 0,0.0197 0,0.0483 0,0.007 3e-4,0.0103 0.01,0.0118 0.01,0.001 0.01,0.005 0.01,0.0143 -2e-4,0.007 0,0.0158 0,0.0199 0,0.006 0,0.006 0,-0.004 0,-0.0141 -0.01,-0.0159 -0.011,-0.002 -5e-4,0.005 0,0.018 -0.01,0.0287 0,0.0133 0,0.0209 -5e-4,0.0242 0,0.003 0,0.0109 0.01,0.0183 0,0.0103 10e-4,0.014 0,0.0157 0,10e-4 -0.01,0.005 -0.01,0.009 0,0.004 0,0.0151 -0.01,0.0247 -0.01,0.0153 -0.01,0.0173 -0.017,0.0157 -0.01,-0.001 -0.01,-5e-5 -0.01,0.003 0,0.002 0,0.008 -0.01,0.0132 -0.01,0.009 -0.012,0.0207 -0.01,0.0231 0.01,0.002 10e-4,0.029 0,0.029 0,0 0,0.003 0,0.007 0,0.004 0,0.007 0,0.007 0,0 -0.01,0.0101 -0.01,0.0225 0,0.0179 -0.01,0.0232 -0.013,0.0258 0,0.002 -0.01,0.006 -0.011,0.009 0,0.003 -0.01,0.006 -0.01,0.006 0,0 -0.01,0.004 -0.013,0.0124 -0.01,0.0124 -0.01,0.0135 -0.031,0.0137 -0.01,9e-5 -0.013,0.002 -0.014,0.007 0,0.004 -0.01,0.0103 -0.013,0.015 l -0.011,0.009 v -0.0115 c 0,-0.0137 -0.01,-0.0152 -0.01,-0.002 0,0.009 -0.011,0.0144 -0.021,0.0124 0,-7e-4 0,0.003 0,0.01 0,0.006 0,0.0116 -0.01,0.0126 0,10e-4 0,-6.3e-4 0,-0.008 0,-0.006 9e-4,-0.01 0,-0.01 0,0 0,0.003 0,0.006 0,0.004 0,0.005 -0.01,0.004 0,-10e-4 -0.01,7.8e-4 -0.015,0.006 -0.01,0.005 -0.011,0.007 -0.016,0.006 0,-0.001 -0.01,-4.8e-4 -0.01,10e-4 0,0.002 -3e-4,0.003 0,0.003 0,0 0,-0.003 0,-0.0112 0,-0.01 6e-4,-0.0112 -0.01,-0.0112 -0.012,0 -0.016,0.006 -0.01,0.0106 0.01,0.003 0.01,0.006 0,0.0139 0,0.006 -0.01,0.011 -0.01,0.012 0,0.001 0,-10e-4 0,-0.0118 0,-0.007 7e-4,-0.0135 0,-0.0135 0,0 0,-0.002 0,-0.005 0,-0.003 0,-0.005 -0.012,-0.005 -0.01,1.9e-4 -0.016,0.002 -0.019,0.003 0,0.003 -0.01,10e-4 -0.01,-0.0218 -3e-4,-0.008 0,-0.0156 0,-0.0164 -0.01,-0.003 -0.017,0.0229 -0.015,0.0355 v 0.0116 l -0.018,-0.002 c -0.01,-10e-4 -0.02,-0.004 -0.022,-0.007 -0.01,-0.008 -0.015,-0.006 -0.018,0.002 0,0.009 -0.01,0.01 -0.01,0.002 0,-0.003 0,-0.007 -0.01,-0.008 0,-10e-4 -0.01,-0.006 -0.015,-0.0101 l -0.01,-0.008 -0.01,0.008 c 0,0.006 -0.01,0.008 -0.017,0.008 -0.011,0 -0.011,-5e-5 -0.01,-0.0177 0,-0.0244 -0.01,-0.0392 -0.034,-0.0376 -0.016,0.001 -0.036,-0.005 -0.041,-0.0113 0,-0.003 0,-0.0124 0,-0.0201 0,-0.008 0,-0.0207 -0.01,-0.0287 0,-0.008 -0.01,-0.018 -0.01,-0.0222 0,-0.004 0,-0.008 0,-0.008 0,0 0,-0.003 0,-0.008 0,-0.008 -0.01,-0.0183 -0.014,-0.0183 0,0 -0.01,-0.0162 -0.01,-0.0447 -7e-4,-0.01 0,-0.0129 -0.01,-0.0125 0,3.4e-4 -0.01,-0.002 -0.01,-0.007 0,-0.004 0,-0.0138 0,-0.0214 0,-0.0118 0,-0.0154 0,-0.0244 0,-0.006 0.01,-0.0156 0.01,-0.0219 9e-4,-0.0173 0.012,-0.0548 0.022,-0.0768 0.01,-0.0108 0.01,-0.0213 0.01,-0.0233 0,-0.002 0,-0.009 0,-0.0146 -10e-4,-0.008 10e-4,-0.0129 0.01,-0.0181 0.011,-0.009 0.017,-0.0364 0.015,-0.0684 -0.01,-0.0829 -0.01,-0.13229 -10e-5,-0.14226 0,-0.002 0,-0.0306 0,-0.0628 0,-0.0322 0,-0.0602 0,-0.0622 0,-0.002 0,-0.0216 0,-0.0436 10e-4,-0.0359 3e-4,-0.0417 -0.01,-0.0562 -0.01,-0.0129 -0.01,-0.0187 -0.01,-0.0283 0,-0.007 0,-0.0121 0.01,-0.0121 0,0 0,-0.0175 -10e-5,-0.0205 0,-10e-4 0,-0.0152 0,-0.0309 0,-0.0337 0,-0.0454 -0.01,-0.0454 -0.01,0 -0.01,-0.01 0,-0.0324 0,-0.0119 0.01,-0.0367 0.01,-0.0551 5e-4,-0.0184 0,-0.0381 0.01,-0.0437 0,-0.009 0,-0.0112 0,-0.017 -0.01,-0.008 -0.01,-0.0157 -7e-4,-0.0251 0.01,-0.0101 0.01,-0.0263 0,-0.0321 -0.01,-0.004 -0.01,-0.009 -0.01,-0.0311 4e-4,-0.0144 0,-0.0293 0,-0.0331 0,-0.005 0,-0.0124 0,-0.0259 0,-0.0104 0,-0.0248 0,-0.032 0,-0.007 0,-0.0214 0,-0.0317 0,-0.0381 0.01,-0.0561 0.01,-0.0663 0.01,-0.0131 0.01,-0.0311 3e-4,-0.0342 -0.01,-0.003 0,-0.0158 5e-4,-0.0175 0,-7.7e-4 0,-0.006 0,-0.0124 -2e-4,-0.006 0,-0.0264 0,-0.0452 -7e-4,-0.0188 0,-0.0455 -0.01,-0.0592 0,-0.0228 0,-0.0254 0,-0.0298 0.01,-0.004 0.01,-0.0115 0.01,-0.0533 3e-4,-0.0365 -8e-4,-0.0489 0,-0.0503 0,-10e-4 0,-0.004 0,-0.008 0.01,-0.0127 0.01,-0.0336 0,-0.0407 -0.01,-0.01 -0.01,-0.031 0,-0.0501 0.011,-0.0255 0.013,-0.065 0,-0.0479 0,0.002 0,0.003 -0.01,0.002 0,-0.002 0.01,-0.0337 0.012,-0.0414 0,-0.003 -10e-5,-0.006 -0.01,-0.0103 -0.011,-0.007 -0.012,-0.0159 0,-0.0369 0.01,-0.0169 0.01,-0.0635 10e-4,-0.0706 0,-0.003 0,-0.01 0,-0.0228 0.01,-0.0157 0.01,-0.0225 0,-0.0395 0,-0.0215 0,-0.0618 0,-0.079 0,-0.008 0,-0.0108 0,-0.0126 -0.01,-0.002 -0.01,-0.006 0,-0.0289 0,-0.0222 0,-0.0283 0.013,-0.0378 0.01,-0.006 0.011,-0.0144 0.011,-0.0182 0,-0.006 0,-0.005 -0.01,0.003 0,0.005 -0.01,0.0113 -0.01,0.0135 0,0.002 0,0.004 -0.01,0.004 -0.01,0 -0.01,-0.002 0,-0.0205 0.01,-0.0188 0.01,-0.0448 0,-0.048 0,-0.002 -0.01,-0.005 0,-0.0123 0,-0.006 4e-4,-0.0141 0,-0.0192 0,-0.007 0,-0.0149 0,-0.0288 0,-0.0125 0.01,-0.0244 0,-0.0329 0,-0.007 -10e-4,-0.0132 10e-4,-0.0132 0.01,0 0.01,-0.0192 0,-0.0262 0,-0.004 -0.01,-0.0122 -0.01,-0.021 4e-4,-0.008 4e-4,-0.0159 -10e-5,-0.018 -4e-4,-0.002 -4e-4,-0.008 0,-0.0126 4e-4,-0.005 0,-0.0102 0,-0.0117 0,-0.002 0,-0.006 -10e-5,-0.0191 0,-0.009 0,-0.0237 0,-0.0328 0,-0.0132 0,-0.0175 -0.01,-0.0211 -0.01,-0.004 -0.01,-0.005 0,-0.007 0.015,-0.006 0.032,-0.0638 0.021,-0.0707 0,-0.002 0,-0.01 0,-0.024 0,-0.014 0,-0.0224 0,-0.024 0,-0.003 -0.01,-0.0474 -8e-4,-0.0525 0.01,-0.006 0.01,-0.0234 0,-0.0261 -0.01,-0.003 0,-0.0363 0.01,-0.051 0,-0.009 0,-0.0102 -6e-4,-0.009 0,8.6e-4 -0.01,-0.006 -0.01,-0.0376 -9e-4,-0.0213 0,-0.0397 0,-0.0409 -2e-4,-10e-4 6e-4,-0.005 0,-0.008 0,-0.008 0.01,-0.0337 0.01,-0.0476 -10e-5,-0.007 0,-0.0193 0.01,-0.0279 0.01,-0.02 0.01,-0.0249 0.01,-0.0355 0,-0.006 0,-0.0104 0,-0.0152 0.012,-0.0109 0.032,-0.10083 0.023,-0.10382 -0.01,-0.003 0,-0.0286 0.01,-0.0416 0.013,-0.0155 0.016,-0.0249 0.012,-0.0279 -0.01,-0.003 0,-0.0264 0,-0.0483 0,-0.0102 0,-0.0207 0,-0.0232 -9e-4,-0.003 0,-0.005 0.01,-0.005 0.01,0 0.01,-0.002 0.013,-0.0121 0,-0.009 0.01,-0.0119 0.011,-0.0112 0.01,5.7e-4 0.01,-10e-4 0.01,-0.005 0,-0.003 0,-0.005 0,-0.003 0,0.001 0,4.3e-4 0,-0.002 0,-0.002 0,-0.003 0,-0.002 0,10e-4 0,-0.003 0,-0.0121 0,-0.0112 0,-0.0177 0.013,-0.0291 0.013,-0.0149 0.015,-0.0139 0.013,0.007 -7e-4,0.008 0.013,0.0162 0.017,0.0103 0,-0.002 0,-0.0118 2e-4,-0.0214 0,-0.0218 0,-0.0336 0.01,-0.0181 0,0.006 0,0.0119 0,0.0138 0,0.002 0,0.003 0,0.003 0,0 0.012,-0.0249 0.012,-0.0349 0,-0.007 0.01,-0.008 0.01,-0.001 10e-5,0.003 0,0.002 0.01,-0.002 0,-0.004 0.01,-0.005 0.01,-0.003 0,0.002 0,0.003 0.01,0.002 0,-0.003 0,0.0121 -9e-4,0.0218 0,0.007 0,0.008 0,0.003 0.01,-0.005 0.01,-0.003 0.01,0.004 -2e-4,0.002 0,0.001 0.01,-10e-4 0.01,-0.003 0.01,-0.006 0.01,-0.0135 0,-0.012 7e-4,-0.0236 0.01,-0.0236 0,0 0.01,-0.002 0.01,-0.004 0,-0.002 0,-0.004 0,-0.004 0.01,0 0,0.0408 0,0.0432 -0.01,0.002 -0.015,0.0214 -0.013,0.028 8e-4,0.002 0,-0.002 0.01,-0.0101 0.01,-0.0139 0.023,-0.0313 0.029,-0.0313 0,0 0.01,-0.004 0.011,-0.009 0.01,-0.0103 0.023,-0.0155 0.027,-0.0101 0,0.006 -0.01,0.0263 -0.015,0.0263 0,0 0,0.002 0,0.004 0,0.002 5e-4,0.004 0,0.004 0,0 0,0.002 -2e-4,0.007 0.01,0.0103 0,0.0139 0,0.0221 -0.01,0.005 -0.01,0.009 0,0.0134 0,0.005 0.01,0.003 0.015,-0.013 0.01,-0.0105 0.012,-0.0205 0.012,-0.0222 0,-0.01 0.014,-0.0261 0.024,-0.0283 0.01,-0.001 0.014,-0.005 0.018,-0.008 0.01,-0.006 0.01,-0.005 0.01,0.0136 0,0.0251 0,0.0277 0.01,0.005 0,-0.01 0.01,-0.0216 0.01,-0.0267 0,-0.009 0,-0.009 0,0.003 3e-4,0.0122 0,0.0158 0.01,0.008 0,-0.003 0,-0.002 0.01,0.003 0,0.007 0,0.007 0,-7.2e-4 3e-4,-0.01 0.01,-0.0178 0.017,-0.0149 0.01,0.002 0.01,0.003 0,0.0105 -0.01,0.0107 -0.01,0.0155 3e-4,0.0126 0,-10e-4 0.01,2.2e-4 0.01,0.004 0,0.005 0.01,0.005 0.012,0.002 0.011,-0.006 0.011,-0.006 0.014,0.008 0,0.006 0,0.014 0.01,0.0167 0.01,0.006 0.015,0.007 0.012,2.5e-4 0,-0.008 0.01,-0.0193 0.014,-0.0155 0,0.002 0.01,0.003 0.014,0.002 0.01,-7.8e-4 0.01,10e-4 0.01,0.008 0,0.005 0.01,0.0113 0.012,0.014 0.01,0.003 0.013,0.008 0.016,0.0126 0.01,0.007 0.01,0.007 0.012,10e-4 0.01,-0.008 0.01,-0.005 0.01,0.009 0,0.006 0,0.0105 0,0.0105 0,0 0,0.004 0,0.01 0,0.0137 0,0.0152 0.01,0.006 0.01,-0.009 0.016,-0.0111 0.016,-0.004 0,0.002 0,0.003 0.01,0.002 0.01,-0.003 0.01,0.0181 0,0.0362 -0.01,0.0127 -0.01,0.0135 0,0.0135 0.013,0 0.014,0.0252 0,0.0426 0,0.005 0,0.0123 0,0.022 0,0.01 10e-4,0.0139 0,0.0123 0,-0.003 -0.01,0.008 -0.01,0.0128 0,0.003 0.013,0.002 0.025,-0.002 0.01,-0.002 0.01,-5.7e-4 0.01,0.009 0,0.006 0,0.0131 0.01,0.0156 0,0.004 0,0.007 0,0.0237 -0.011,0.0296 -0.026,0.0583 -0.03,0.0583 0,0 0,-0.003 0,-0.007 0,-0.0121 0.01,-0.0307 0,-0.0307 0,0 -0.013,0.0364 -0.01,0.0413 0,0.002 0,0.003 0.01,0.003 0,0 0.01,0.003 0.01,0.007 0,0.004 0,0.002 0.01,-0.006 0,-0.007 0.01,-0.0121 0.01,-0.0121 0,0 0,0.008 5e-4,0.0168 0,0.0132 -3e-4,0.0189 0.01,0.0263 0.01,0.007 0.01,0.0106 0,0.0137 0,0.003 0,0.002 0,-0.003 -10e-5,-0.007 -6e-4,-0.007 -0.01,10e-4 -0.01,0.0106 -0.013,0.0337 -0.01,0.0462 0,0.007 0,0.0109 -4e-4,0.0136 0,0.003 0,0.006 -3e-4,0.009 0.01,0.0114 0.01,0.026 0,0.0498 -0.01,0.0203 -0.013,0.0225 -0.014,0.0154 0,-0.005 0,-0.0154 0,-0.0241 -10e-5,-0.0176 0,-0.02 -0.013,-0.008 -0.01,0.0106 -0.01,0.023 0,0.0291 0,0.004 0.01,0.009 0,0.0224 0,0.01 -9e-4,0.0185 10e-4,0.0197 0,0.002 0.011,-0.009 0.013,-0.0218 0,-0.006 0,-0.006 0,0.003 0,0.01 0,0.024 -0.01,0.0512 0,0.005 0,0.0141 0,0.0196 0,0.005 0,0.0175 0,0.0268 0,0.013 0,0.0177 -0.011,0.0202 -0.021,0.008 -0.027,0.0647 -0.01,0.0885 0.01,0.0102 0.01,0.0105 3e-4,0.0196 l -0.01,0.009 v -0.008 c 0,-0.014 -0.01,-0.005 -0.01,0.0153 0,0.0107 0,0.0215 0,0.024 0,0.003 0,0.005 0,0.009 0,0.002 0,0.008 0,0.0128 0,0.005 0,0.009 0,0.0106 0,10e-4 0,0.009 0,0.0168 0,0.0153 -0.01,0.0252 -0.01,0.0104 -2e-4,-0.008 -4e-4,-0.008 0,-10e-4 0,0.004 -0.01,0.0122 -0.014,0.0179 -0.01,0.009 -0.01,0.0115 -0.01,0.0168 0.01,0.007 0.01,0.009 0.012,0.0295 0,0.0122 0,0.018 4e-4,0.0253 0,0.005 0,0.0171 0,0.0264 0,0.0139 0,0.0166 0.01,0.0147 0,-10e-4 0.01,-0.002 0.01,-0.002 9e-4,0 0,-0.005 0,-0.0102 2e-4,-0.01 4e-4,-0.01 0,-0.002 0,0.006 0,0.0115 0,0.0186 -0.01,0.0115 -0.01,0.0362 0,0.0328 0,-10e-4 0,0.006 0,0.0185 -5e-4,0.0148 9e-4,0.0218 0,0.0246 0,0.003 0,0.004 9e-4,0.006 -0.01,0.003 -0.01,0.009 0,0.009 0,0 0.01,-0.002 0.011,-0.005 0,-0.003 0.01,-0.005 0.01,-0.003 0.01,0.002 0.012,0.0168 0.012,0.041 0,0.0224 0.016,0.0206 0.032,-0.004 0.01,-0.0123 0.011,-0.0142 0.012,-0.009 0,0.005 0,0.006 0.01,0.005 0.01,-0.002 0.01,-2.2e-4 0.013,0.005 0,0.004 0.01,0.007 0.011,0.007 0,0 0.01,0.002 0.01,0.004 0,0.002 0,0.004 0,0.004 0,0 0,-0.003 0,-0.007 0,-0.005 -10e-5,-0.007 0,-0.007 0.01,0 0.01,0.0102 0.01,0.0155 0,0.002 0,0.003 0.01,0.002 0.01,-10e-4 0.014,-0.015 0.01,-0.023 0,-0.003 0,-0.008 0,-0.0129 0,-0.007 9e-4,-0.008 0,-0.006 0,0.002 -0.01,3.2e-4 -0.01,-0.004 0,-0.007 0,-0.007 0.012,-10e-4 0.01,0.004 0.01,0.004 0.013,-0.002 0,-0.006 0.01,-0.006 0.01,-6.7e-4 0,0.004 0,0.005 0.01,0.004 0.01,-0.002 0.01,-1.1e-4 0.01,0.006 0,0.009 0.011,0.008 0.012,-0.002 0,-0.012 0.01,-0.0165 0.018,-0.014 0.01,0.002 0.01,10e-4 0.01,-0.002 0,-0.005 0,-0.0226 0.013,-0.0281 0,-0.002 0.011,-0.004 0.018,-0.004 0.01,-2.3e-4 0.02,-0.004 0.029,-0.009 0.017,-0.009 0.017,-0.009 0.022,-0.002 0,0.004 0,0.009 0,0.011 0,0.002 0,0.007 -0.01,0.0114 0,0.0133 0.015,-0.008 0.025,-0.0273 0.011,-0.0208 0.016,-0.023 0.022,-0.009 v 0.0105 l 0.01,-0.0139 c 0,-0.0109 0.01,-0.0134 0.013,-0.0117 0.01,0.002 0.011,-0.002 0.021,-0.0137 0.01,-0.009 0.014,-0.0182 0.014,-0.0209 0,-0.003 0.01,-0.007 0.013,-0.0103 0.01,-0.003 0.013,-0.007 0.013,-0.009 0,-0.007 0.029,-0.0342 0.043,-0.0397 0.01,-0.003 0.013,-0.007 0.013,-0.009 0,-0.002 0.01,-0.0108 0.014,-0.0195 0.016,-0.0184 0.032,-0.0391 0.046,-0.061 0.01,-0.009 0.013,-0.0173 0.017,-0.0195 0,-0.002 0.011,-0.0116 0.015,-0.0211 0.01,-0.0137 0.01,-0.0163 0.013,-0.013 0,0.002 0.01,0.003 0.01,0.001 0,-0.005 0.039,-0.0345 0.042,-0.0346 0.01,-10e-5 0.035,-0.032 0.037,-0.0413 0,-0.0129 0.02,-0.031 0.034,-0.0366 0.01,-0.004 0.012,-0.007 0.012,-0.0159 0,-0.01 9e-4,-0.0108 0.01,-0.009 0.011,0.002 0.027,-0.008 0.027,-0.0176 0,-0.005 0.023,-0.0244 0.049,-0.0411 0.01,-0.004 0.012,-0.0114 0.013,-0.0169 0,-0.005 0.01,-0.0116 0.01,-0.0135 0,-0.002 0.013,-0.007 0.021,-0.0107 0.01,-0.005 0.016,-0.0118 0.02,-0.0215 0,-0.0105 0.01,-0.0139 0.012,-0.0127 0,0.001 0.01,-0.002 0.012,-0.009 0.01,-0.0109 0.03,-0.0337 0.035,-0.0337 0,0 0.01,-0.008 0.015,-0.0168 0.01,-0.009 0.014,-0.0167 0.018,-0.0167 0,0 0.01,-0.006 0.013,-0.015 0.01,-0.0111 0.011,-0.0167 0.022,-0.0218 0.01,-0.004 0.02,-0.0125 0.026,-0.0194 0.01,-0.007 0.012,-0.0146 0.014,-0.0169 0,-0.002 0,-0.005 0.01,-0.006 0,-7.2e-4 0.012,-0.0122 0.023,-0.0255 0.011,-0.0133 0.025,-0.0284 0.031,-0.0335 0.01,-0.005 0.017,-0.0139 0.024,-0.0195 0.01,-0.006 0.014,-0.0103 0.015,-0.0104 0.01,-2.8e-4 0.03,-0.0237 0.037,-0.0361 0,-0.008 0.01,-0.0121 0.015,-0.0121 0.01,0 0.011,-0.005 0.018,-0.0196 0.01,-0.0108 0.01,-0.021 0.01,-0.0227 0,-0.007 0.015,-0.0242 0.02,-0.0224 0,10e-4 0.01,-0.002 0.01,-0.011 0,-0.007 0.01,-0.0219 0.017,-0.0329 0.015,-0.0204 0.022,-0.0257 0.022,-0.0181 0,0.014 0.04,-0.0262 0.045,-0.0454 0,-0.009 0.01,-0.0209 0.012,-0.0275 0.01,-0.0109 0.01,-0.0115 0.015,-0.007 0.015,0.0113 0.046,4.2e-4 0.054,-0.0191 0,-0.006 0,-0.006 0,0.004 4e-4,0.0111 5e-4,0.0111 0,0.002 0,-0.007 0.01,-0.008 0.018,-0.007 0.01,10e-4 0.015,2.9e-4 0.017,-0.002 0,-0.002 0.01,-0.002 0.014,5.2e-4 0.01,0.003 0.012,0.003 0.019,-0.004 0,-0.004 0.012,-0.008 0.016,-0.008 0.01,0 0.01,0.002 0.01,0.0104 0,0.0161 0.01,0.0246 0.021,0.022 0.012,-0.002 0.024,0.004 0.024,0.0134 0,0.005 0,0.006 0.017,0.004 0.015,-0.002 0.017,-0.002 0.014,0.005 0,0.006 0,0.006 0,0.002 0.01,-0.008 0.011,-0.005 0.011,0.0102 0,0.0204 0.021,0.0447 0.039,0.0447 0.015,0 0.018,0.003 0.011,0.01 -0.01,0.006 -0.01,0.0198 0,0.0198 0,0 0,-10e-4 0,-0.003 0,-0.002 0,-0.004 0.01,-0.006 0.01,-10e-4 0.011,-0.004 0.013,-0.007 0,-0.002 0,-0.003 0.01,-0.002 0,0.001 0,0.006 -0.01,0.01 -0.01,0.006 -0.01,0.009 0,0.0218 0,0.008 0,0.0257 0.01,0.0395 0,0.0138 0,0.0251 0.01,0.0251 0,0 0.01,0.0307 0,0.0381 0,0.004 0,0.0114 0,0.0169 v 0.01 l 0.01,-0.0127 c 0.01,-0.0159 0.014,-0.009 0.01,0.0127 0,0.0224 0.01,0.0669 0.026,0.0856 0,0.004 0.01,0.0138 0.01,0.0215 0,0.0119 6e-4,0.0154 -0.01,0.0232 -0.01,0.005 -0.012,0.009 -0.015,0.009 0,0 0,0.003 0,0.006 0,0.005 0,0.007 -0.012,0.006 -0.01,-7.9e-4 0,0.006 0,0.008 0,0.002 0,0.004 9e-4,0.0117 0,0.007 -0.01,0.009 -0.013,0.008 -0.01,-0.002 -0.01,-1.8e-4 -0.01,0.008 -9e-4,0.007 0,0.0106 -0.01,0.0114 0,6.5e-4 -0.01,0.004 -0.01,0.008 0,0.004 -0.01,0.01 -0.01,0.0134 -0.01,0.005 -0.01,0.0114 -0.01,0.0231 0,0.0185 -0.01,0.0308 -0.013,0.0308 0,0 -0.01,0.003 -0.01,0.007 0,0.009 -0.026,0.0104 -0.038,0.002 -0.01,-0.005 -0.01,-0.005 -0.014,10e-4 0,0.004 -0.01,0.0117 -0.01,0.0176 0,0.006 -0.01,0.0127 -0.013,0.0155 -0.01,0.003 -0.01,0.008 -0.01,0.0117 0,0.0121 -0.01,0.0121 -0.013,0 0,-0.0131 0,-0.0131 -0.019,-0.003 -0.011,0.007 -0.013,0.007 -0.013,0.002 0,-0.008 -0.01,-0.007 -0.012,10e-4 0,0.004 -0.01,0.006 -0.01,0.005 0,-9.2e-4 -0.01,0.003 -0.011,0.009 -0.01,0.0128 -0.029,0.0352 -0.059,0.0644 0,0.003 -0.011,0.0119 -0.017,0.0196 -0.01,0.008 -0.016,0.015 -0.02,0.0163 -0.01,10e-4 -0.012,0.008 -0.015,0.0146 -0.012,0.0223 -0.092,0.1096 -0.1007,0.1096 0,0 -0.018,0.0138 -0.035,0.0306 -0.017,0.0168 -0.033,0.0307 -0.036,0.0307 0,4e-5 -0.01,0.006 -0.014,0.0131 0,0.007 -0.011,0.0136 -0.013,0.0143 -0.01,0.002 -0.02,0.0147 -0.061,0.0559 -0.019,0.0193 -0.035,0.0326 -0.037,0.0304 0,-0.005 -0.02,0.007 -0.02,0.0138 -2e-4,0.006 -0.024,0.031 -0.03,0.032 -0.01,0.001 -0.014,0.006 -0.016,0.0171 0,0.006 -0.01,0.0152 -0.011,0.0206 0,0.005 -0.01,0.0115 -0.01,0.0136 0,0.002 -0.01,0.0118 -0.018,0.0216 -0.01,0.01 -0.021,0.0243 -0.024,0.0322 -0.01,0.0203 -0.017,0.0287 -0.023,0.0234 0,-0.002 0,-0.003 0,-5.4e-4 0,0.002 0,0.009 -0.01,0.0151 -0.025,0.0285 -0.03,0.0371 -0.031,0.0518 0,0.007 0,0.0129 0,0.0142 0,10e-4 0,0.01 0,0.0184 0,0.0167 -0.01,0.0239 -0.014,0.0159 0,-0.002 0,-0.003 0,-4.5e-4 0,0.002 0,0.006 0,0.008 0.01,0.008 0.01,0.0455 0,0.0455 0,0 -0.01,0.008 -0.01,0.0177 -0.01,0.0172 -0.018,0.0272 -0.018,0.0142 0,-0.003 0,-0.006 0,-0.006 0,0 0,-0.005 -0.01,-0.0102 0,-0.01 0,-0.01 -0.01,-0.003 -0.01,0.0133 0,0.0425 0.01,0.048 0.01,0.004 0.01,0.009 0.01,0.024 -7e-4,0.0176 0,0.0269 0.01,0.0128 8e-4,-0.004 0.01,-0.006 0.012,-0.007 0.016,-9.2e-4 0.017,9e-4 0.012,0.0123 0,0.008 0,0.0116 0,0.0193 0,0.005 0,0.0125 0.01,0.0163 0,0.004 0,0.009 0.01,0.0112 0,0.003 0,0.009 0,0.0259 0,0.0206 0,0.0223 0.01,0.0335 0.01,0.006 0.012,0.0113 0.014,0.0108 0,-5.1e-4 0,0.003 0,0.009 0,0.0114 0.01,0.0196 0.015,0.0172 0,-10e-4 0,-4.6e-4 -6e-4,0.005 -0.01,0.006 -0.01,0.008 -4e-4,0.0123 0.01,0.005 0.01,0.004 0.011,-0.002 0,-0.004 0.01,-0.009 0.01,-0.0118 0,-0.003 0,-0.005 0,-0.005 0,0 0,0.003 0,0.007 0,0.004 0,0.008 0,0.01 0.01,0.003 0,0.0278 -10e-4,0.0282 0,1.6e-4 4e-4,0.002 0.01,0.004 0.017,0.006 0.021,0.0101 0.021,0.0274 0,0.009 0,0.0171 0,0.0184 0,10e-4 0,0.008 0,0.0154 0,0.01 0,0.0136 0.01,0.0151 0,10e-4 0.01,0.003 0.01,0.005 0,0.002 0,0.003 0.01,0.003 0,0 0.01,0.002 0.01,0.004 0,0.002 0,0.004 0.01,0.004 0.01,0 0.01,0.002 0.01,0.009 0,0.005 0,0.0151 0.01,0.0224 0,0.007 0.01,0.0172 0.01,0.0221 0,0.012 0,0.0211 0.01,0.0186 0,-10e-4 0.01,0.004 0.01,0.0112 0.01,0.0124 0.01,0.0149 0.02,0.0135 0,-3.5e-4 0,0.003 0,0.009 0,0.009 0.01,0.0189 0.016,0.0218 0,10e-4 0,0.003 0,0.008 -0.01,0.008 -0.01,0.008 10e-4,0.0171 0.01,0.007 0.01,0.018 0.01,0.0344 -4e-4,0.004 0,0.007 0.01,0.007 0,0 0.01,0.004 0.012,0.0112 0,0.006 0.01,0.0112 0.011,0.0112 0,0 0.01,0.008 0.015,0.0363 0.01,0.0212 0.011,0.0386 0.015,0.0419 0,0.003 0.01,0.0101 0.01,0.0155 0,0.0102 0.012,0.0209 0.018,0.0214 0,1.3e-4 0,0.007 0,0.0163 4e-4,0.0125 0,0.019 0.012,0.0289 0.01,0.007 0.013,0.0174 0.014,0.0231 0,0.006 0,0.0112 0.01,0.0123 0,0.001 0,0.006 0,0.011 0,0.005 0,0.0107 0.01,0.0131 0.017,0.009 0.026,0.0197 0.026,0.032 0,0.007 0,0.0197 0.01,0.0289 0.01,0.009 0.01,0.0193 0.01,0.0225 0,0.003 0,0.006 0,0.006 0,0 0.01,0.004 0.01,0.01 5e-4,0.006 0.01,0.019 0.021,0.0326 0.013,0.015 0.02,0.0253 0.019,0.0297 -9e-4,0.004 7e-4,0.008 0,0.009 0,10e-4 0.01,0.007 0.01,0.013 0,0.009 0,0.0107 0.01,0.009 0,-0.002 0.01,-6.2e-4 0.01,0.003 5e-4,0.006 6e-4,0.006 0,0.0291 0,0.018 0.012,0.0393 0.017,0.0427 0,10e-4 0,0.007 0.01,0.0134 0,0.007 0.01,0.0126 0.012,0.0149 0.01,0.002 0.01,0.007 0.011,0.0109 10e-4,0.004 0,0.006 0.01,0.005 0,-10e-4 0.01,0.003 0.01,0.008 0,0.006 0.01,0.0121 0.01,0.0142 0,0.002 0.01,0.0101 0.01,0.018 0,0.012 0,0.0135 0.01,0.01 0.01,-0.007 0.011,-9.2e-4 0.01,0.0303 -6e-4,0.0162 6e-4,0.0295 0,0.0295 0,0 0,-0.002 0.01,-0.005 9e-4,-0.003 0,0.002 0.01,0.0102 0,0.01 0.01,0.0149 0.014,0.0149 0,0 0.01,0.003 0.01,0.006 8e-4,0.003 0,0.009 0,0.013 0,0.004 0,0.0108 0,0.0149 8e-4,0.005 0,0.007 0.01,0.007 0,-4.9e-4 0.01,0.003 0.014,0.008 0.01,0.007 0.01,0.011 0,0.0223 0,0.007 -0.01,0.0135 -0.01,0.0135 0,0 -6e-4,0.002 0,0.005 0,0.003 0.012,0.006 0.018,0.006 0.01,1.2e-4 0.01,4.8e-4 0,0.007 -0.01,0.009 -0.01,0.0182 0,0.0238 0,0.003 0.01,0.007 0.01,0.009 0,0.002 0,0.006 0,0.007 0,0.002 0.01,0.0126 0.012,0.0244 0.01,0.0212 0.011,0.0257 0.015,0.0167 0,-0.004 0,-0.004 0,0 2e-4,0.003 0,0.005 0.01,0.005 0.01,0 0.01,0.004 0,0.0208 0,0.01 0,0.0143 0,0.025 0,0.007 0.01,0.0147 0.01,0.0167 0,0.002 0.01,0.009 0.012,0.0162 0.012,0.0132 0.026,0.0354 0.026,0.0429 0,0.007 0.01,0.01 0.013,0.005 0,-0.004 0.01,-0.003 0.01,0.002 0,0.004 0,0.0103 0.01,0.0144 0,0.004 0,0.0147 0.01,0.0236 0,0.009 0,0.0169 0.01,0.018 0,0.003 0.017,-0.006 0.017,-0.0119 0,-0.008 0,-0.007 0.01,0.002 0,0.004 0.01,0.007 0.01,0.006 0,-9.6e-4 0.01,0.008 0.01,0.0202 0.01,0.0204 0.01,0.0232 6e-4,0.0394 -0.01,0.0256 0,0.033 0.01,0.0127 0.01,-0.0149 0.01,-0.0157 0.015,-0.01 0.01,0.009 0.014,0.0436 0.01,0.0515 0,0.004 4e-4,0.007 0.01,0.01 0.01,0.002 0.01,0.006 0.01,0.008 0,0.003 0,0.003 0.01,-3.6e-4 0,-0.003 0.01,-0.003 0.01,-2.6e-4 0,0.002 0.01,0.006 0.011,0.008 0.01,0.002 0.011,0.005 0.011,0.007 0,0.002 0,0.003 0.01,0.003 0.012,0 0.016,0.01 0.016,0.0406 l -2e-4,0.0295 0.015,0.0135 c 0.013,0.0121 0.015,0.0148 0.013,0.0265 0,0.007 0,0.0183 -0.01,0.0247 0,0.008 0,0.013 0,0.0155 0.01,0.006 0,0.019 0,0.0325 -0.01,0.0126 -0.01,0.0188 -0.01,0.0294 0,0.0112 0.01,0.0366 0,0.0378 0,6.8e-4 -0.01,0.007 -0.01,0.0143 0,0.007 -0.01,0.0132 -0.014,0.0134 0,2.1e-4 -0.01,6.3e-4 -0.011,9.3e-4 0,3e-4 -0.01,0.0126 -0.01,0.0274 -0.01,0.0364 -0.011,0.0446 -0.021,0.0417 0,-10e-4 -0.01,-0.004 -0.011,-0.006 -0.01,-0.007 -0.017,-0.003 -0.024,0.0135 -0.01,0.017 -0.013,0.0205 -0.016,0.0121 0,-0.004 0,-0.004 -0.01,0 -0.01,0.006 -0.017,0.006 -0.019,4.1e-4 -8e-4,-0.003 -0.01,-6.3e-4 -0.017,0.006 -0.012,0.007 -0.016,0.0122 -0.016,0.0195 0,0.01 -0.013,0.0234 -0.021,0.0237 0,7e-5 -0.01,-0.003 -0.01,-0.007 -0.01,-0.0102 -0.01,-0.009 -0.015,0.005 -0.01,0.0165 -0.012,0.0163 -0.019,-8.6e-4 0,-0.008 -0.01,-0.0148 -0.01,-0.0148 0,0 -0.011,0.0144 -0.017,0.0307 0,0.004 0,0.006 -0.01,0.006 0,-3.5e-4 -0.01,-10e-4 -0.017,-0.002 z m 0.2757,-0.19672 c 0,-0.0114 0,-0.0216 0,-0.0225 0,-0.003 -0.018,0.0244 -0.018,0.0317 0,0.007 0,0.0116 0.01,0.0116 0,0 0,-0.009 0.01,-0.0208 z m -0.7846,-0.42782 c 0,-0.003 0,-0.005 0,-0.004 0,10e-4 0,0.004 0,0.006 0,0.002 0,0.004 0,0.004 0,0 0,-0.003 0,-0.006 z m 0.013,-0.0274 c 0,-0.002 4e-4,-0.005 0,-0.006 0,-10e-4 0,2.7e-4 0,0.003 0,0.007 0,0.007 0.01,0.002 z m -0.028,-0.0614 c 0,-0.003 0,-0.006 0,-0.008 0,-10e-4 0,10e-4 0,0.005 0,0.004 0,0.008 0,0.008 0,0 0,-0.002 0,-0.005 z m -1.0096,-0.22977 c 0,-0.003 0,-0.002 0,0.002 -2e-4,0.004 7e-4,0.006 0,0.005 0,-10e-4 0,-0.004 3e-4,-0.007 z m 0.016,-0.0742 c 0,-0.004 0,-0.006 0,-0.005 0,10e-4 0,0.006 0,0.01 0,0.004 0,0.006 0,0.005 0,-10e-4 0,-0.006 0,-0.01 z m 0.046,-0.41262 c 0,-0.002 5e-4,-0.004 0,-0.004 0,0 0,0.002 0,0.004 0,0.002 7e-4,0.004 0,0.004 9e-4,0 0,-0.002 0,-0.004 z m 0.173,-0.25955 c 0,-0.005 0,-0.008 0,-0.008 0,0 0,0.006 0,0.014 10e-5,0.0104 10e-4,0.0125 0,0.008 0,-0.003 0,-0.009 0,-0.0139 z m 0.815,-0.01 c 0,-9e-4 0,-0.003 0,-0.004 0,-0.001 0,-5.3e-4 0,0.002 0,0.002 0,0.004 0,0.004 0,0 0,-7.4e-4 0,-0.002 z m -0.6425,-0.34257 c 0,-0.003 6e-4,-0.006 0,-0.006 0,0 0,0.003 0,0.006 0,0.003 6e-4,0.006 0,0.006 8e-4,0 0,-0.003 0,-0.006 z m 0.4147,-0.0468 c 7e-4,-0.005 0,-0.0116 0,-0.0139 0,-0.004 -0.01,-0.001 -0.011,0.0108 l -0.01,0.0151 0.01,-10e-4 c 0.01,-8.8e-4 0.01,-0.003 0.011,-0.0108 z m -1.0226,-0.005 c 0,-0.007 0.01,-0.0151 0.01,-0.0177 0,-0.004 -0.018,0.0226 -0.018,0.0287 0,0.005 0,10e-4 0.011,-0.011 z m 0.4019,-0.0132 c 0,-0.002 0,-0.004 0,-0.004 0,0 0,0.003 0,0.006 0,0.003 0,0.005 0,0.004 0,-10e-4 0,-0.004 0,-0.006 z m -0.5047,-0.0202 c 0,-0.003 5e-4,-0.006 0,-0.006 0,0 0,0.003 0,0.006 0,0.003 7e-4,0.006 0,0.006 8e-4,0 0,-0.003 0,-0.006 z m 1.0964,-0.0409 c 0,-0.003 -6e-4,-0.006 0,-0.006 -8e-4,0 0,0.003 0,0.006 0,0.003 -5e-4,0.006 0,0.006 0,0 0,-0.003 0,-0.006 z m 0.045,-0.12001 c 0,-0.008 -8e-4,-0.009 0,-0.005 0,0.007 0,0.0149 0,0.0149 0,0 0,-0.005 0,-0.0102 z m -0.8223,-0.0921 c 0.01,-0.007 0.015,-0.007 0.015,-9.3e-4 2e-4,0.003 0,-0.004 0.01,-0.0137 0,-0.0148 0,-0.0202 0,-0.0279 v -0.01 l -0.01,0.0129 c 0,0.007 -0.01,0.0177 -0.014,0.0235 -0.01,0.0107 -0.012,0.0213 -0.01,0.0213 0,0 0.01,-0.003 0.01,-0.006 z m -0.1985,-0.0102 c -10e-4,-0.003 0,-4.7e-4 0,0.005 0,0.005 9e-4,0.007 0,0.005 0,-0.003 0,-0.007 0,-0.009 z m 0.304,-0.008 c 0,-0.003 5e-4,-0.006 0,-0.008 0,-10e-4 0,-10e-4 0,-4.2e-4 0,9.8e-4 -10e-4,0.004 0,0.008 0,0.003 -6e-4,0.006 0,0.006 0,0 0,-0.002 0.01,-0.005 z m -0.2956,-0.0327 c 0,-0.005 0,-0.01 0,-0.0117 0,-0.004 -0.012,0.008 -0.012,0.0152 0,0.008 0.01,0.006 0.011,-0.003 z m 0.3773,-10e-4 c 0,-0.005 0,-0.005 -0.01,-9.8e-4 0,0.006 -6e-4,0.0117 0,0.009 0,-10e-4 0,-0.005 0,-0.008 z m 0.084,-0.052 c 2e-4,-0.008 0,-0.009 -0.01,-0.002 0,0.004 0,0.0107 -0.01,0.0158 v 0.009 l 0.01,-0.009 c 0,-0.005 0.01,-0.0111 0.01,-0.0133 z m -0.4599,-0.007 c 0,-0.003 0,-0.0103 0,-0.0156 0,-0.0128 -0.01,-0.006 -0.01,0.01 0,0.0124 0,0.0171 0.01,0.006 z m -0.2233,-0.0369 c 0,-0.003 5e-4,-0.006 0,-0.006 0,0 0,0.003 0,0.006 0,0.003 6e-4,0.006 0,0.006 8e-4,0 0,-0.003 0,-0.006 z m 0.054,-0.0261 c 0,-10e-4 0,9.1e-4 0,0.005 0,0.005 0,0.006 0,0.002 0,-0.003 0,-0.006 0,-0.007 z m -0.018,-0.12502 c 0,-0.002 0,-0.003 -0.01,-0.003 0,0 -0.01,0.003 -0.01,0.008 0,0.007 9e-4,0.007 0.01,0.003 0,-0.003 0.01,-0.006 0.01,-0.008 z m 0.3349,-0.0105 c 0,-0.014 -0.01,-0.0235 -0.01,-0.0147 0,0.007 0,0.0294 0,0.0294 0,0 0,-0.007 0,-0.0147 z m 1.145,0.007 c 0,-0.003 0,-0.002 0,0.002 -2e-4,0.004 7e-4,0.006 0,0.005 0,-10e-4 0,-0.004 3e-4,-0.007 z m -1.141,-0.0812 c 0,0 0,-0.003 0,-0.007 0,-0.004 0,-0.007 0,-0.007 0,0 0,-0.007 0,-0.0149 0,-0.008 0,-0.0149 0,-0.0149 -0.01,0 -0.01,0.0222 0,0.0436 0,0.0167 0.01,0.0192 0.01,0.0112 7e-4,-0.006 0,-0.0102 0,-0.0102 z m 0.7447,-0.0874 c 0.01,-0.0137 0.01,-0.0144 8e-4,-0.009 -0.012,0.009 -0.016,0.0163 -0.016,0.026 -10e-5,0.0107 0,0.008 0.015,-0.0167 z m -0.8387,-0.10848 c 0,-0.005 0,-0.004 0,0.004 0,0.007 -9e-4,0.009 0,0.007 0,-0.002 0,-0.007 0,-0.0105 z m 0.1483,-0.002 c -10e-4,-0.003 0,-4.7e-4 0,0.005 0,0.005 9e-4,0.007 0,0.005 0,-0.003 0,-0.007 0,-0.009 z m -0.084,-0.0658 c 0.01,-0.0107 0,-0.0121 0,-0.005 -0.01,0.007 -0.01,0.0122 0,0.0122 0,0 0.01,-0.003 0.01,-0.007 z m -0.2284,-0.0253 c 0,-0.004 -0.01,0.002 0,0.007 0,0.004 0,0.004 0,0 9e-4,-0.003 6e-4,-0.006 -7e-4,-0.007 z m 0.1949,-2.9e-4 c 0,-0.005 -5e-4,-0.006 0,-7.2e-4 0,0.007 0,0.0122 0,0.009 0,-10e-4 0,-0.005 0,-0.009 z m -0.145,-0.004 c 0,-0.004 0,-0.007 0,-0.007 -10e-4,0 0,0.003 -0.01,0.007 0,0.004 0,0.007 0,0.007 10e-4,0 0,-0.003 0.01,-0.007 z m -0.2348,-0.0428 c 0,-0.004 0,-7.5e-4 -0.01,0.007 -0.01,0.0186 -0.01,0.0212 10e-5,0.009 0,-0.005 0.01,-0.0127 0.01,-0.0168 z m 0.4394,0.0133 c 0,-0.002 0,-0.006 0,-0.009 0,-0.003 6e-4,-0.006 0,-0.006 0,0 0,0.004 -0.01,0.009 -10e-4,0.005 -3e-4,0.009 0,0.009 0,0 0,-0.002 0,-0.003 z m 1.7213,-0.038 c 0,-0.004 10e-4,-0.009 -3e-4,-0.0109 0,-0.007 -0.017,0.008 -0.017,0.02 0,0.0109 2e-4,0.011 0.01,0.005 0,-0.004 0.01,-0.01 0.01,-0.0136 z m -1.9011,0.003 c 0,-0.003 0,-4.6e-4 0,0.005 0,0.005 8e-4,0.007 0,0.005 10e-4,-0.003 10e-4,-0.007 0,-0.009 z m 0.032,0.003 c 0,-0.003 7e-4,-0.005 0,-0.004 0,10e-4 0,0.004 0,0.006 0,0.005 0,0.004 0.01,-0.002 z m 1.6486,-0.0299 c 0,-0.008 0,-0.0127 0,-0.0127 0,0 0,0.004 0,0.009 0,0.0103 0,0.0128 0.01,0.003 z m 0.2404,-0.0109 c 0,-0.003 0,-0.006 0,-0.006 0,0 0,0.003 0,0.006 0,0.003 0,0.006 0,0.006 8e-4,0 0,-0.003 0,-0.006 z m -1.9575,-0.0214 c 1e-4,-0.004 0,-0.007 0,-0.007 0,0 -0.01,0.0113 0,0.0181 0,0.004 0,0.004 0,0 0,-0.003 0,-0.008 0,-0.0116 z m 1.9817,-0.0214 c 0,-0.002 5e-4,-0.004 0,-0.004 0,0 0,0.002 0,0.004 0,0.002 7e-4,0.004 0,0.004 9e-4,0 0,-0.002 0,-0.004 z m -1.8268,-0.0288 c 0,-0.004 -0.01,0.002 0,0.007 0,0.004 0,0.004 0,0 9e-4,-0.003 6e-4,-0.006 -7e-4,-0.007 z m -0.1027,-0.014 c 0,-0.003 0,-0.006 0,-0.006 0,0 0,0.003 0,0.006 0,0.003 0,0.006 0,0.006 0,0 0,-0.003 0,-0.006 z m -0.268,-0.007 c 0,-0.007 -7e-4,-0.007 0,-0.003 0,0.007 0,0.0112 0,0.0112 0,0 0,-0.004 0,-0.008 z m 0.4836,-0.0837 c -3e-4,-0.009 -7e-4,-0.009 0,-0.003 0,0.004 0,0.009 0,0.0102 0,0.005 0,0.003 0,-0.007 z m -0.428,-0.0512 c 10e-5,-0.002 0,-10e-4 0,0.002 0,0.003 0,0.008 0,0.0112 2e-4,0.006 0.01,-0.006 0.01,-0.013 z m 0.432,-0.004 c 0,-0.003 0,-0.005 0,-0.003 0,10e-4 0,0.004 0,0.006 0,0.002 0,0.003 0,0.003 0,0 0,-0.003 0,-0.006 z m -0.3021,-0.0471 c 0.01,-0.02 0,-0.023 0,-0.005 -0.01,0.0154 -0.01,0.0212 0,0.0212 0,0 0.01,-0.007 0.01,-0.0157 z m 0.1743,-0.0522 c 0,-0.003 0,-4.7e-4 0,0.005 0,0.005 8e-4,0.007 0,0.005 0,-0.003 0,-0.007 0,-0.009 z m -0.2295,-0.033 c 0,-0.002 0,-0.003 -0.01,-0.003 0,0 -0.01,0.002 -0.01,0.005 0,0.003 0,0.005 0.01,0.003 0,-10e-4 0.01,-0.004 0.01,-0.005 z m 1.7849,-0.035 c 0,-0.005 0,-0.009 0,-0.009 0,0 -0.012,0.0122 -0.012,0.0158 -3e-4,0.006 0.01,0.002 0.01,-0.007 z m -4.1448,3.48405 c -10e-4,-0.007 0,-0.008 -0.013,-0.008 -0.01,7e-4 -0.012,-10e-4 -0.016,-0.009 0,-0.009 0,-0.0108 0,-0.019 0.012,-0.0115 0.012,-0.0118 -3e-4,-0.0231 -0.01,-0.008 -0.01,-0.008 -0.014,-0.003 0,0.003 -0.01,0.007 -0.012,0.008 0,10e-4 -0.01,0.005 -0.01,0.009 2e-4,0.003 0,0.007 -0.01,0.008 -0.01,10e-4 -0.01,-0.002 -0.01,-0.0222 -1e-4,-0.0228 -3e-4,-0.0233 -0.01,-0.0156 0,0.004 -0.01,0.0109 -0.01,0.0145 0,0.006 0,0.006 -0.01,-5e-5 0,-0.004 -0.01,-0.009 0,-0.0126 0,-0.003 0,-0.0102 0,-0.0153 0,-0.008 0,-0.009 0,-0.004 0,0.003 -0.01,0.01 -0.01,0.0153 0,0.0108 -0.014,0.0185 -0.025,0.0161 0,-8e-4 -0.01,-0.007 -0.01,-0.0142 0,-0.0148 -6e-4,-0.0202 0.01,-0.0203 0,-5e-5 0.01,-0.002 0.012,-0.003 0,-0.002 -10e-5,-0.003 -0.011,-0.002 -0.01,8.4e-4 -0.017,0.002 -0.019,0.004 0,10e-4 0,6e-4 0,-10e-4 0,-0.002 0,-0.007 -0.01,-0.0119 0,-0.005 -0.01,-0.0108 -0.01,-0.0136 0,-0.003 0,-0.005 0,-0.005 0,0 -0.01,0.01 0,0.0223 3e-4,0.003 -4e-4,0.008 0,0.0112 0,0.0108 -0.012,-0.0123 -0.013,-0.0342 -2e-4,-0.0227 0,-0.029 -0.014,-0.021 0,0.004 -0.01,0.004 -0.01,1.4e-4 0,-0.004 0,-0.004 -0.01,8.2e-4 -0.01,0.005 -0.01,0.005 -0.016,-0.008 0,-0.008 -0.01,-0.0143 -0.015,-0.015 0,-7.1e-4 -0.01,-0.006 -0.014,-0.014 -0.01,-0.015 -0.01,-0.0157 -0.015,-0.004 -0.01,0.0117 -0.01,0.0104 -0.013,-0.003 0,-0.0156 -0.01,-0.0201 -0.015,-0.0201 0,0 -0.01,-0.004 -0.01,-0.01 0,-0.006 0,-0.009 -0.01,-0.008 0,0.001 -0.01,1.9e-4 -0.01,-0.002 -8e-4,-0.002 0,-10e-4 -0.01,0.002 -0.01,0.005 -0.01,0.006 -0.012,0.002 0,-0.003 0,-0.008 0,-0.0132 0,-0.005 4e-4,-0.009 0,-0.0107 0,-10e-4 0,-0.007 0,-0.0118 0,-0.008 0,-0.009 -0.01,-0.007 -0.01,0.002 -0.01,4.4e-4 -0.011,-0.003 0,-0.006 -0.018,-0.0134 -0.029,-0.0147 -0.01,-8.9e-4 -0.01,-10e-4 -0.013,-0.015 0,-0.006 -0.01,-0.0117 -0.011,-0.0123 0,-6.3e-4 -0.01,-0.002 -0.011,-0.002 0,-6.5e-4 0,-0.001 -0.01,-0.002 0,-5.8e-4 -0.018,-0.0146 -0.018,-0.0174 0,-0.004 -0.014,-0.0159 -0.02,-0.0173 0,-8.9e-4 -0.01,-0.004 -0.01,-0.008 10e-4,-0.0114 -0.013,-0.0218 -0.029,-0.0216 -0.015,2.1e-4 -0.02,-0.007 -0.01,-0.0121 0,-0.002 0.01,-0.003 0,-0.007 0,-0.003 -0.01,-0.002 -0.015,0.004 -0.012,0.009 -0.015,0.008 -0.015,-0.008 0,-0.009 -8e-4,-0.0103 -0.01,-0.006 -0.01,0.006 -0.011,-0.003 -0.01,-0.0253 0,-0.01 0,-0.0154 2e-4,-0.0128 0,0.008 -0.016,0.006 -0.016,-0.003 0,-0.005 0,-0.007 -0.01,-0.007 -0.01,0 -0.01,-0.002 -0.01,-0.01 0,-0.009 0,-0.009 -0.011,-0.007 -0.011,0.002 -0.011,0.002 -0.011,-0.01 0,-0.009 0,-0.0145 -0.01,-0.0198 -0.01,-0.006 -0.01,-0.0114 -0.01,-0.0237 -4e-4,-0.0129 0,-0.0168 -0.01,-0.0192 0,-0.002 -0.01,-0.006 -0.01,-0.009 0,-0.004 -0.01,-0.006 -0.014,-0.006 -0.01,0 -0.011,-0.001 -0.011,-0.0115 0,-0.008 0,-0.012 -0.01,-0.0134 -0.01,-0.002 -0.015,-0.0186 -0.012,-0.0326 0,-0.009 0,-0.0101 -0.01,-0.008 -0.01,0.002 -0.01,0.002 -0.01,-0.0107 0,-0.013 0,-0.0133 -0.01,-0.0114 -0.01,0.002 -0.01,9.7e-4 -0.01,-0.005 0.01,-0.0127 0,-0.0215 0,-0.0251 0,-0.002 -0.01,-0.007 -0.013,-0.012 0,-0.005 -0.01,-0.007 -0.01,-0.006 0,0.002 -0.01,-0.003 -0.01,-0.0171 -7e-4,-0.005 0,-0.0122 0,-0.0156 0,-0.003 0,-0.008 -7e-4,-0.01 0,-0.002 0,-0.003 -0.01,-0.002 -0.01,0.002 -0.01,0.001 -0.01,-0.006 0,-0.009 0,-0.0262 0,-0.0262 -0.01,0 0,-0.0137 0.01,-0.0223 0.01,-0.009 0.012,-0.0149 0.01,-0.0149 0,0 0,0.003 0,0.006 0,0.003 0,0.006 -0.01,0.006 -0.011,0 -0.018,-0.0147 -0.017,-0.0342 6e-4,-0.008 0,-0.0155 0,-0.0189 0,-0.004 -0.01,-0.0105 0,-0.0264 0,-0.0114 0,-0.02 6e-4,-0.0192 -8e-4,8.8e-4 0,-0.002 -0.01,-0.007 0,-0.006 -0.01,-0.0121 0,-0.0203 0,-0.007 5e-4,-0.0137 0,-0.0167 0,-0.003 0,-0.0219 0,-0.0488 -4e-4,-0.0336 0,-0.044 -0.01,-0.0456 -0.01,-0.002 0,-0.025 0,-0.0332 0,-0.002 0,-0.009 0,-0.0149 0,-0.013 0,-0.0195 10e-5,-0.0466 0,-0.0189 0,-0.0213 -0.01,-0.0234 0,-10e-4 -0.01,-0.004 -0.01,-0.008 0,-0.003 -2e-4,-0.005 0,-0.005 0,0 -0.01,-0.001 0,-0.007 0,-0.004 0,-0.0107 0,-0.015 0,-0.004 0,-0.0123 0.01,-0.0178 0.01,-0.008 0.01,-0.0182 0.01,-0.0492 10e-5,-0.0216 -9e-4,-0.0401 0,-0.0411 0,-10e-4 -9e-4,-0.0136 7e-4,-0.0279 0.01,-0.0497 0.01,-0.0986 0,-0.0986 0,0 0,-0.0108 -0.01,-0.0241 0,-0.0198 0,-0.0261 0,-0.0355 0,-0.008 0.01,-0.0122 0,-0.0141 -0.01,-0.004 -0.01,-0.0161 0,-0.0287 0,-0.006 0.01,-0.0246 0.01,-0.0409 3e-4,-0.0164 0,-0.0361 0,-0.0437 0,-0.0108 0,-0.014 0,-0.014 0,0 -0.01,-0.004 -0.01,-0.01 0,-0.008 0,-0.0117 8e-4,-0.02 0,-0.006 0,-0.0112 0,-0.0124 0,-0.001 6e-4,-0.009 0,-0.0177 0.01,-0.0138 0.01,-0.0164 6e-4,-0.024 -0.01,-0.0116 -0.01,-0.034 -7e-4,-0.0535 0,-0.009 0.01,-0.026 0.01,-0.0379 0,-0.0119 0,-0.0257 0,-0.0307 0,-0.01 -3e-4,-0.0331 -0.01,-0.0534 -0.01,-0.0149 -0.01,-0.0283 5e-4,-0.0512 0,-0.0138 0,-0.0195 0,-0.0234 0,-0.004 0,-0.009 -2e-4,-0.019 0,-0.008 0,-0.0263 0.01,-0.0414 0,-0.0156 0,-0.0288 0.01,-0.0304 0,-0.002 0,-0.004 0,-0.009 -0.01,-0.006 -0.01,-0.0247 4e-4,-0.0378 0,-0.004 0,-0.02 3e-4,-0.0404 0,-0.0184 0,-0.0377 -10e-4,-0.0428 0,-0.005 0,-0.0428 0,-0.0837 0,-0.0587 0,-0.0773 0.01,-0.0882 0.01,-0.0129 0.01,-0.0142 -2e-4,-0.0201 0,-0.004 -0.01,-0.0102 0,-0.0168 9e-4,-0.006 -3e-4,-0.0112 0,-0.0122 0,-10e-4 0,-0.005 -8e-4,-0.016 0,-0.008 0,-0.032 0,-0.0542 0,-0.0304 -5e-4,-0.0411 0,-0.0442 0.01,-0.006 0.01,-0.0206 0,-0.0229 0,-0.001 -0.01,-0.005 -0.01,-0.008 0,-0.003 0,-0.005 0,-0.004 0.01,0.003 0,-0.003 -6e-4,-0.008 0,-0.005 -0.01,-0.039 0,-0.0361 0.01,0.003 0.012,-0.009 0.01,-0.014 -0.01,-0.006 -0.01,-0.0321 0,-0.0323 0,-8e-5 0,0.002 0,0.005 0,0.007 0.01,0.008 0.01,3e-4 6e-4,-0.003 0,-0.009 -0.01,-0.0139 -0.01,-0.01 -0.01,-0.0129 0,-0.0172 0,-0.002 0.01,-0.005 0.01,-0.007 -3e-4,-0.006 0,-0.0219 0.01,-0.0284 0,-0.004 0,-0.009 0,-0.0119 0,-0.003 6e-4,-0.009 0,-0.014 0.01,-0.009 0.01,-0.0142 0,-0.0142 0,0 0,0.004 -0.01,0.008 v 0.008 l -2e-4,-0.008 c -3e-4,-0.009 0.01,-0.0226 0.015,-0.0295 0,-0.004 0,-0.005 0,-0.005 -0.01,-10e-5 -0.01,-0.002 0,-0.0122 0,-0.0115 0,-0.0117 0,-0.005 -0.01,0.007 -0.01,0.007 0,-0.002 7e-4,-0.006 0,-0.01 0.01,-0.0107 0,-7.7e-4 0.01,-0.003 0.01,-0.005 0,-0.002 0.01,-0.004 0.011,-0.004 0.011,-8.3e-4 0.021,-0.0188 0.021,-0.0389 2e-4,-0.0106 0,-0.0185 0.01,-0.0242 0,-0.005 0.014,-0.0204 0.02,-0.0349 0.01,-0.0145 0.016,-0.0311 0.021,-0.0368 0,-0.006 0.01,-0.0128 0.01,-0.0158 0,-0.003 0.01,-0.0123 0.013,-0.0206 0.01,-0.008 0.013,-0.0165 0.013,-0.0181 0,-0.002 0,-0.007 0.01,-0.0125 0.01,-0.007 0.01,-0.016 0.012,-0.0318 0,-0.0222 0.01,-0.0273 0.017,-0.0276 0.01,-2e-4 0.037,-0.0271 0.037,-0.0356 0,-0.004 0,-0.009 0.01,-0.0119 0,-0.003 0.01,-0.006 0.01,-0.009 0,-0.002 0,-0.006 0.01,-0.009 0.01,-0.003 0.01,-0.007 0.01,-0.009 0,-0.004 0.023,-0.028 0.027,-0.028 0,0 0.01,-0.005 0.015,-0.0121 0.052,-0.0492 0.07,-0.0661 0.073,-0.0661 0,0 0.01,-0.009 0.018,-0.0205 0.011,-0.0144 0.018,-0.0205 0.024,-0.0205 0,0 0.012,-0.002 0.016,-0.005 0,-0.003 0.01,-0.006 0.012,-0.006 0.01,-1.4e-4 0.017,-0.011 0.02,-0.0194 0,-0.004 0,-0.006 0.01,-0.004 0.01,0.002 0.01,-5.5e-4 0.012,-0.009 0.01,-0.0204 0.01,-0.0218 0.021,-0.0207 0.01,8.2e-4 0.015,-0.002 0.026,-0.0114 0.013,-0.0113 0.038,-0.0251 0.045,-0.0251 0,0 0.01,-0.005 0.013,-0.0108 0.01,-0.007 0.019,-0.0134 0.036,-0.0186 0.014,-0.004 0.028,-0.0103 0.031,-0.0133 0.01,-0.007 0.025,-0.0168 0.034,-0.0168 0,0 0.01,-0.005 0.014,-0.0102 0.01,-0.0138 0.011,-0.014 0.033,-0.0289 0.021,-0.014 0.027,-0.0139 0.027,1.1e-4 0,0.006 0,0.008 0.01,0.007 0.01,-0.002 0.011,-0.0143 0.015,-0.0319 0,-0.007 0,-0.0103 0.012,-0.0112 0.01,-9.9e-4 0.01,-0.003 0.01,-0.0123 2e-4,-0.0142 0.011,-0.0403 0.016,-0.0374 0,0.001 0,0.008 0.01,0.0142 v 0.012 -0.013 -0.013 0.0102 c 0,0.0137 0.01,0.0129 0.01,-10e-4 0,-0.009 0,-0.0111 0.01,-0.0101 0,8.6e-4 0.01,0.004 0.01,0.01 0,0.01 0.01,0.011 0.023,0.003 0.01,-0.005 0.011,-0.005 0.017,3.6e-4 0.01,0.006 0.022,0.004 0.022,-0.002 0,-0.002 0,-0.003 0.01,-0.003 0,0 0.01,0.004 0.01,0.01 0,0.006 0,0.009 0,0.007 0,-10e-4 0,-0.007 0,-0.0131 0,-0.008 -3e-4,-0.0119 0.01,-0.0159 0.01,-0.005 0.01,-0.005 0.019,3.2e-4 0.012,0.006 0.012,0.0101 0,0.0336 0,0.0111 0.01,0.0115 0.014,5.3e-4 0,-0.004 0.01,-0.007 0.01,-0.005 0,0.002 0.01,-5e-4 0.01,-0.005 0,-0.004 0,-0.008 0.01,-0.008 0,0 0,-0.002 0,-0.004 0,-0.0143 0.024,-0.0192 0.035,-0.007 0.01,0.01 0.01,0.009 0.021,-0.002 0.011,-0.0116 0.013,-0.0116 0.016,-7e-5 0,0.005 0,0.009 0.01,0.009 0.01,0 0.011,0.011 0,0.0207 l -0.01,0.009 0.01,0.0167 c 0,0.009 0.01,0.0176 0.012,0.0188 0,0.003 0.019,-0.007 0.016,-0.0105 0,-0.002 0.01,-0.0138 0.012,-0.0138 0,0 0,0.01 0,0.0214 0,0.0316 -9e-4,0.0325 0.01,0.0268 0,-0.004 0.01,-0.004 0.01,0.003 0,0.004 0,0.009 0.01,0.01 0.01,0.002 0.01,0.003 -5e-4,0.007 -0.01,0.005 -0.01,0.0175 0,0.0175 0,0 0,0.006 0,0.013 0,0.018 0.01,0.0164 0.01,-0.002 v -0.0155 l 0.013,0.0143 c 0.011,0.0117 0.013,0.0161 0.01,0.0238 0,0.009 0,0.009 0,10e-4 0,-0.01 -0.01,-0.011 -0.01,-0.003 0,0.005 0,0.0198 0.01,0.0373 0,0.004 0,0.0106 0.01,0.0144 0,0.006 0,0.006 0.01,0.002 0,-0.004 0.01,-0.003 0.01,0.004 0,0.006 0,0.008 -0.01,0.006 0,-10e-4 -0.01,0.002 -0.014,0.008 -0.01,0.008 -0.01,0.0133 -0.01,0.0314 9e-4,0.018 0,0.0214 0.01,0.0214 0.012,0 0.019,0.004 0.019,0.0106 -1e-4,0.005 -5e-4,0.005 0,5.5e-4 0,-0.005 0,-0.005 -0.01,0.002 -0.01,0.007 -0.01,0.0242 0,0.0242 0,0 0.01,-0.004 0.01,-0.01 0.01,-0.0134 0.017,-0.006 0.01,0.01 -0.01,0.0112 -0.01,0.0124 -2e-4,0.0155 0,0.002 0.01,0.005 0,0.007 0,0.002 7e-4,0.003 0,0.003 0.01,0 0.01,9.2e-4 0,0.008 0,0.005 -0.01,0.0117 -0.01,0.0158 -8e-4,0.004 0,0.009 -0.01,0.0109 0,0.002 -0.01,0.009 -0.011,0.0161 0,0.007 0,0.0124 -0.01,0.0121 0,-2.8e-4 -0.01,0.002 -0.01,0.006 0,0.004 -0.01,0.005 -0.011,0.004 0,-0.002 -0.01,-1.7e-4 -0.01,0.007 0,0.005 0,0.01 0,0.0113 0,0.001 0,1.6e-4 0,-0.002 0,-0.003 0,-0.003 -0.01,0.002 -0.01,0.006 -0.01,0.007 5e-4,0.0138 0.01,0.007 0.01,0.008 4e-4,0.0147 -0.01,0.008 -0.012,0.0301 -0.01,0.0301 0,0 0,0.003 0,0.007 0,0.008 -0.01,0.01 -0.01,0.003 0,-0.007 -0.02,0.0146 -0.026,0.0366 v 0.008 l -0.01,-0.008 -0.01,-0.008 -0.01,0.0133 c -0.01,0.0203 -0.014,0.0236 -0.025,0.0142 0,-0.004 -0.01,-0.0106 -0.01,-0.0139 9e-4,-0.005 -10e-5,-0.005 0,10e-4 0,0.004 0,0.0109 0,0.0159 0,0.0102 -0.01,0.0153 -0.017,0.009 -0.01,-0.004 -0.01,-0.003 -0.01,0.007 0,0.0106 -0.01,0.0192 -0.01,0.0115 0,-0.002 -0.01,-0.005 -0.013,-0.006 -0.012,-0.002 -0.013,-0.003 -0.012,-0.0156 6e-4,-0.008 -8e-4,-0.0138 0,-0.0147 0,-9.4e-4 0,0.003 -0.01,0.0108 -8e-4,0.009 0,0.0121 -0.01,0.0113 0,-5.6e-4 -0.01,0.002 -0.011,0.006 -0.01,0.007 -0.01,0.007 -0.01,-0.002 0,-0.005 0,-0.0136 0,-0.0186 0,-0.005 0,-0.009 0,-0.009 0,0 0,0.005 0,0.0121 -10e-5,0.019 0,0.0239 -0.014,0.0144 0,-0.004 -0.01,-0.01 -0.01,-0.0116 0,-0.002 0,-0.003 -0.01,-0.003 -0.01,4.3e-4 -0.01,0.003 -0.01,0.005 0,0.002 0,0.005 -0.01,0.007 0,0.001 -0.01,0.004 -0.01,0.006 0,0.005 -0.015,0.02 -0.022,0.0211 -0.025,0.004 -0.045,0.0153 -0.045,0.0263 -10e-5,0.002 0,0.006 -0.01,0.008 0,0.002 -0.01,0.011 -0.012,0.0197 -0.01,0.0154 -0.01,0.0159 -0.023,0.017 -0.012,7.7e-4 -0.019,0.003 -0.022,0.008 0,0.005 -0.01,0.007 -0.016,0.006 -0.01,-6e-4 -0.011,10e-4 -0.012,0.007 -8e-4,0.004 0,0.0102 -0.01,0.0136 0,0.005 0,0.007 0,0.01 0.01,0.003 0.01,0.005 0,0.009 0,0.003 -0.01,0.005 -0.013,0.005 -0.014,9.3e-4 -0.021,0.006 -0.021,0.0129 0,0.004 0,0.0128 -0.01,0.0201 -0.01,0.01 -0.01,0.0132 -0.017,0.0132 -0.01,0 -0.01,0.003 -0.011,0.007 0,0.004 -0.01,0.007 -0.01,0.007 -0.01,0 -0.01,0.002 0,0.007 0,0.006 7e-4,0.007 -0.01,0.007 -0.01,0 -0.02,0.013 -0.014,0.017 0,0.002 0,0.003 5e-4,0.005 0,10e-4 -0.01,0.0135 -0.016,0.0272 -0.01,0.0137 -0.014,0.0254 -0.015,0.026 0,6.3e-4 -0.01,0.01 -0.01,0.0198 -0.014,0.0372 -0.025,0.0577 -0.031,0.0577 0,0 -0.01,0.002 -0.01,0.004 0,0.002 0,0.004 0.01,0.004 0.01,0 0.01,0.002 0,0.0164 -0.01,0.0121 -0.012,0.0245 -0.01,0.0245 0,0 0,0.004 0,0.01 0,0.007 -7e-4,0.009 0,0.007 0.01,-0.004 0,0.0186 -0.01,0.0308 -0.01,0.0104 -0.011,0.0678 0,0.0678 0,0 0,0.003 0,0.0102 0,0.006 0,0.0186 -0.01,0.0288 -9e-4,0.0103 0,0.022 0,0.0261 0,0.018 8e-4,0.0313 0.01,0.0296 0,-0.001 0,0.005 0,0.029 -6e-4,0.0169 0,0.0351 0,0.0404 0,0.005 0,0.0118 -3e-4,0.0143 0,0.003 0,0.0123 -8e-4,0.0217 0,0.0121 0,0.0191 5e-4,0.0238 0.01,0.008 0.01,0.019 3e-4,0.0241 -0.01,0.005 -0.01,0.0643 0,0.0698 0,0.002 0,0.0129 7e-4,0.0237 0,0.0107 0,0.0195 4e-4,0.0195 0,0 0,0.0177 -7e-4,0.0261 0,0.005 0,0.008 0,0.009 0.01,0.003 0,0.018 -5e-4,0.0296 0,0.0101 0,0.0183 0,0.01 0,-0.004 0,-0.003 0.01,0.003 0,0.004 6e-4,0.0108 0,0.0146 0,0.006 0,0.01 0,0.0208 0.01,0.0163 0.01,0.0332 0,0.0398 0,0.003 -0.01,0.009 -0.01,0.0144 -2e-4,0.0117 -0.01,0.0437 -0.012,0.0474 0,10e-4 0,0.005 0,0.009 0,0.005 5e-4,0.005 0,3.1e-4 0,-0.005 0,-0.005 0,0 3e-4,0.003 0,0.0105 0,0.0164 7e-4,0.007 0,0.015 -0.01,0.0218 -0.01,0.008 -0.01,0.0117 0,0.0136 0,10e-4 0,0.007 0.01,0.0126 5e-4,0.006 0,0.01 0.01,0.01 0.01,0 0,0.0213 0,0.0277 -0.01,0.006 0,0.0161 0,0.0156 0.01,-4.2e-4 0.01,0.002 0.01,0.0122 -7e-4,0.007 0,0.0166 -0.01,0.0213 -0.01,0.01 -0.013,0.0534 -0.01,0.0534 0,0 0,0.0298 -4e-4,0.0432 0,0.006 0,0.0181 -0.01,0.0271 0,0.0141 0,0.0159 0,0.0139 0.01,-0.002 0.01,4.6e-4 0,0.0238 0,0.0204 -7e-4,0.0269 0,0.0292 0.01,0.004 0,0.0275 -0.01,0.0397 -0.01,0.0101 -0.011,0.0167 -0.01,0.0167 0,0 0,0.004 0,0.009 0,0.006 0,0.01 0.01,0.0107 0.01,0.002 0.01,0.004 0.01,0.0181 0,0.009 0,0.0183 -0.01,0.0209 0,0.003 0,0.005 5e-4,0.005 0.01,0 0.01,0.007 0,0.0176 -0.01,0.0101 -0.01,0.0233 0,0.0233 0,0 0,0.0119 0,0.0314 -5e-4,0.0214 8e-4,0.0333 0,0.0373 0,0.005 0,0.008 4e-4,0.0157 0,0.008 0,0.0108 8e-4,0.015 0,0.004 0,0.007 2e-4,0.0199 0,0.014 0,0.0155 0.01,0.0323 0.01,0.0112 0.01,0.0189 0.01,0.0212 0,0.002 0,0.008 0,0.014 0,0.006 0,0.0104 0,0.0104 0,0 0,0.0222 0,0.0335 0,0.006 0,0.0244 0,0.0345 0,0.004 -10e-5,0.006 0,0.006 0,-7.2e-4 0,0.003 0,0.0111 -7e-4,0.008 0,0.016 0.01,0.0223 0,0.006 0.01,0.0152 0.01,0.0214 0,0.0253 0.01,0.0339 0.014,0.0424 0,0.005 0.01,0.011 0.01,0.0135 0,0.003 0,0.006 0.01,0.007 0,10e-4 0.01,0.005 0.01,0.008 0,0.007 0.011,0.0249 0.018,0.0292 0,0.002 0,0.007 0,0.0124 0,0.007 0,0.009 0.01,0.008 0.01,-10e-4 0.027,0.0154 0.027,0.0208 0,0.005 0.017,0.0189 0.021,0.0179 0,-5.5e-4 0.01,5.5e-4 0.01,0.002 0,0.002 0.01,0.003 0.01,0.002 0.01,-0.003 0.017,0.008 0.014,0.0205 0,0.009 -3e-4,0.0117 0.012,0.0195 0.01,0.005 0.016,0.0118 0.017,0.0152 0,0.003 0,0.007 0.01,0.008 0,10e-4 0.01,0.004 0.01,0.006 0,0.002 0,0.008 0.01,0.0133 0.01,0.007 0.011,0.008 0.015,0.005 0,-0.003 0.01,-0.002 0.01,0.003 0,0.005 0.01,0.007 0.013,0.005 0.01,-0.001 0.01,-1e-4 0.01,0.007 0,0.007 0,0.008 0.01,0.006 0.01,-0.002 0.01,-8.8e-4 0.012,0.005 0,0.009 0.01,0.0103 0.01,0.002 0,-0.007 0.01,-0.007 0.01,1.1e-4 0,0.004 0,0.005 0.01,0.004 0.01,-0.002 0.01,1.9e-4 0.01,0.007 0,0.005 0,0.01 0.01,0.01 0,0 0.01,0.003 0,0.009 -10e-4,0.005 4e-4,0.0111 0,0.0135 0,0.002 0.01,0.003 0.01,10e-4 0,-0.002 0,0 0,0.004 0,0.006 0.01,0.006 0.01,-0.005 0.01,-0.0167 0.017,-0.0174 0.033,-0.002 0.01,0.007 0.011,0.013 0.01,0.0132 0,2.5e-4 -0.01,6.7e-4 -0.01,9.3e-4 -0.01,8.6e-4 -0.01,0.01 4e-4,0.01 0,0 0.01,0.002 0.01,0.005 0,0.006 0.02,0.005 0.025,-10e-4 0.01,-0.008 0.012,-0.008 0.019,3.3e-4 0,0.005 0.01,0.006 0.013,0.004 0,-0.003 0.01,-0.002 0.01,0.002 0,0.003 0,0.006 0.01,0.006 0,0 0.01,0.003 0.012,0.006 0.01,0.009 0.017,0.005 0.022,-0.01 0,-0.0149 0.011,-0.0142 0.01,10e-4 -5e-4,0.008 0,0.0108 0.01,0.0125 0.01,0.002 0.013,0.009 0.01,0.009 0,0 0,0.005 0,0.0104 0,0.007 -6e-4,0.0123 0,0.0153 -0.01,0.006 -0.01,0.0213 0,0.0235 0,8.3e-4 0.01,-6.7e-4 0.014,-0.003 0.01,-0.004 0.01,-0.004 0.011,-2.8e-4 10e-4,0.003 0.01,0.005 0.013,0.005 0.011,0 0.011,3.7e-4 0.011,0.0205 1e-4,0.0113 0,0.0213 0,0.0223 0,0.004 0.015,0.027 0.015,0.0318 0,0.004 0,0.004 0.01,8e-4 0.01,-0.004 0.01,-0.003 0.017,0.005 0,0.005 0.01,0.0152 0.01,0.0229 0,0.008 0,0.0148 0,0.016 0.01,0.003 0,0.0113 0,0.0271 -0.01,0.0157 -0.01,0.0257 9e-4,0.0333 0,0.003 0.01,0.007 0.01,0.009 0,0.002 0,0.003 0,10e-4 0.01,-0.003 0,-8.5e-4 0,0.0117 0,0.006 -0.01,0.0137 -0.01,0.0174 0,0.004 0,0.01 0,0.013 0,0.008 0,0.0242 0.01,0.022 0,-9e-4 0.01,-2.4e-4 0.013,0.001 0.01,0.002 0.01,0.002 0.01,-0.002 0,-0.003 0,-0.006 0.01,-0.007 0.01,-0.003 0.01,-0.003 0.01,0.003 0,0.007 -0.013,0.0178 -0.019,0.0154 -0.01,-0.003 -0.015,0.009 -0.023,0.0357 -0.01,0.0275 -0.01,0.0459 0,0.0475 0.01,10e-4 0.01,-5.3e-4 0.01,-0.01 0,-0.007 0,-0.0153 0.01,-0.0217 l 0.01,-0.0104 v 0.0186 c 0,0.0102 0,0.0274 0,0.0381 -10e-4,0.0179 -4e-4,0.0196 0.01,0.0198 0.01,2e-4 0.01,4.8e-4 0,0.005 0,0.002 -0.01,0.007 -0.014,0.0108 0,0.004 -0.012,0.009 -0.018,0.0111 -0.01,0.003 -0.011,0.007 -0.011,0.0104 0,0.01 -0.013,0.0299 -0.022,0.0346 -0.01,0.005 -0.016,0.0218 -0.016,0.0442 10e-5,0.01 0,0.0132 0,0.0118 -0.01,-0.002 -0.025,0.036 -0.024,0.0498 0,0.0188 -2e-4,0.027 -0.01,0.027 0,0 -0.01,-0.003 -0.01,-0.006 0,-0.005 -0.01,-0.004 -0.015,0.006 -0.01,0.007 -0.016,0.0123 -0.023,0.0127 l -0.011,6.5e-4 v -0.0238 c 0,-0.0149 0,-0.023 0,-0.0215 0,0.001 0,0.009 0,0.0179 0,0.0121 0,0.0168 -0.01,0.0207 -0.01,0.005 -0.01,0.005 -9e-4,0.0106 0.01,0.005 0.01,0.005 -0.01,0.003 -0.01,-10e-4 -0.016,-0.005 -0.018,-0.008 0,-0.004 0,-0.004 -0.014,7e-4 -0.01,0.005 -0.013,0.005 -0.022,10e-4 -0.01,-0.004 -0.012,-0.003 -0.024,0.005 -0.015,0.0103 -0.041,0.0135 -0.038,0.005 0,-0.004 0,-0.005 -0.013,-0.005 -0.01,1.3e-4 -0.016,0.002 -0.017,0.005 0,0.008 -0.011,0.005 -0.013,-0.004 z m 0.045,-0.0254 c 0,-0.004 0,-0.008 0,-0.009 -0.01,-0.004 -0.011,0.004 -0.01,0.0146 0,0.008 0,0.009 0.01,0.006 0,-0.002 0.01,-0.007 0.01,-0.011 z m -0.037,-0.0416 c 0,-0.002 0,-0.002 -0.01,9.1e-4 0,0.003 -0.01,0.006 -0.01,0.008 0,0.002 0,0.002 0.01,-9.1e-4 0,-0.003 0.01,-0.006 0.01,-0.008 z m 0.013,-0.0251 c 0,-0.002 5e-4,-0.004 0,-0.004 0,0 0,0.002 0,0.004 0,0.002 8e-4,0.004 0,0.004 9e-4,0 0,-0.002 0,-0.004 z m 0.2678,-0.0932 c 0,-0.002 -3e-4,-0.006 0,-0.009 0,-0.003 0,-0.006 0,-0.008 0,-10e-4 0,0.003 -0.01,0.009 -0.01,0.0105 -0.01,0.0115 -1e-4,0.0115 0,0 0,-0.002 0,-0.004 z m 0.028,-0.0232 c -1e-4,-10e-4 -3e-4,-0.007 -3e-4,-0.0123 0,-0.0122 -0.01,-0.0101 -0.01,0.002 -4e-4,0.005 0,0.0104 10e-4,0.0121 0,0.004 0.01,0.002 0.01,-0.002 z m -0.01,-0.13841 c 0,-0.003 5e-4,-0.006 0,-0.008 0,-10e-4 0,10e-4 0,0.005 0,0.009 0,0.01 0,0.002 z m -0.01,-0.042 c 0,-0.004 0,-0.009 0,-0.0121 0,-0.004 0,-0.003 0,0.007 -10e-5,0.007 0,0.0121 0,0.0121 0,0 0,-0.003 0,-0.007 z m -0.1711,-0.007 c 0,-0.003 0,-0.006 8e-4,-0.006 0,0 0,0.003 -0.01,0.006 0,0.003 0,0.006 -8e-4,0.006 7e-4,0 0,-0.003 0.01,-0.006 z m 0.1581,-0.08 c 0,-0.002 6e-4,-0.004 0,-0.004 0,0 0,0.002 0,0.004 0,0.002 7e-4,0.004 0,0.004 9e-4,0 0,-0.002 0,-0.004 z m -1.0698,-0.43968 c 0,-0.002 0,-0.003 0,-0.003 -0.01,0 -0.012,0.009 -0.012,0.0162 0,0.007 5e-4,0.007 0.01,-10e-4 0,-0.005 0.01,-0.01 0.01,-0.0117 z m 0,-0.035 c 0,-0.003 0,-0.005 0,-0.004 0,10e-4 0,0.004 0,0.006 0,0.002 0,0.003 0,0.003 0,0 0,-0.003 0,-0.006 z m 0.083,-0.0891 c 0,-0.003 5e-4,-0.006 0,-0.006 0,0 0,0.003 0,0.006 0,0.003 7e-4,0.006 0,0.006 8e-4,0 0,-0.003 0,-0.006 z m 0.065,-0.0469 c 0,-0.004 0,-0.009 0,-0.01 0,-0.002 -0.017,0.01 -0.017,0.0146 0,0.006 0.01,0.003 0.014,-0.005 z m -0.074,-0.10578 c 0,-0.005 0,-0.005 0,-0.003 0,10e-4 -0.01,0.004 -0.01,0.006 0,0.005 0,0.004 0.01,-0.002 z m 0.058,-0.0204 c 0,-0.002 5e-4,-0.004 0,-0.004 0,0 0,0.002 0,0.004 0,0.002 7e-4,0.004 0,0.004 9e-4,0 0,-0.002 0,-0.004 z m 0.2493,-0.0967 c 0,-0.002 5e-4,-0.004 0,-0.004 0,0 0,0.002 0,0.004 0,0.002 7e-4,0.004 0,0.004 9e-4,0 0,-0.002 0,-0.004 z m -0.1547,-0.16879 c -9e-4,-8.1e-4 -0.01,-0.003 -0.01,-0.004 -0.01,-0.002 -0.01,-0.001 -0.01,0.003 0,0.006 0.011,0.0101 0.016,0.006 0,-0.002 0,-0.004 0,-0.004 z m 0.19,-0.0898 c 0,-0.003 0,-0.006 0,-0.006 0,0 0,0.003 0,0.006 0,0.003 0,0.006 0,0.006 0,0 0,-0.003 0,-0.006 z m 0.022,-0.27723 c 0,-0.004 0.01,-0.008 0.01,-0.009 0,-0.003 -0.018,0.0109 -0.018,0.0141 -2e-4,0.005 0,0.003 0.011,-0.005 z m -0.022,-0.0784 c 0,-0.002 0,-0.004 0,-0.004 0,0 0,0.003 0,0.006 0,0.003 0,0.005 0,0.004 0,-0.001 0,-0.004 0,-0.006 z m -0.037,-0.013 c 0,-0.003 0,-0.005 0,-0.003 0,10e-4 0,0.004 0,0.006 0,0.005 0.01,0.004 0.01,-0.002 z m 0.069,-0.0591 c 0,-0.004 0,-0.006 0,-0.008 0,-0.001 -0.01,-2.6e-4 -0.01,0.003 -0.01,0.0108 0,0.0143 0.01,0.005 z m -0.2404,-0.0475 c 0,-0.002 0,-0.003 0,-0.003 0,0 0,0.002 0,0.003 0,0.002 -10e-4,0.006 0,0.0102 0,0.006 0,0.006 0,-4.1e-4 0,-0.004 0.01,-0.009 0.01,-0.0102 z m 0.2382,-0.0195 c 0,-0.006 -0.01,-0.0104 -0.01,-0.007 0,0.003 0,0.0126 0.01,0.0126 0,0 0,-0.002 0,-0.005 z m -0.2326,-0.0244 c 0,-0.002 6e-4,-0.004 0,-0.004 0,0 0,0.002 0,0.004 0,0.002 8e-4,0.004 0,0.004 9e-4,0 0,-0.002 0,-0.004 z m -0.1404,-0.0394 c 0,-0.004 -0.01,0.002 -0.01,0.009 0,0.006 5e-4,0.006 0.01,-1.3e-4 0,-0.003 0.01,-0.007 0,-0.009 z m 0.2441,-0.0927 c 0,-0.003 5e-4,-0.006 0,-0.006 0,0 0,0.003 0,0.006 0,0.003 7e-4,0.006 0,0.006 8e-4,0 0,-0.003 0,-0.006 z m -0.2321,-0.0258 c 0,-9e-4 0,-0.003 0,-0.004 0,-10e-4 0,-5.2e-4 0,0.002 0,0.002 0,0.004 0,0.004 0,0 0,-7.4e-4 0,-0.002 z m 0.3722,-0.0102 c 0,-0.005 -0.01,-0.002 -0.01,0.004 -9e-4,0.003 7e-4,0.004 0,0.002 0,-10e-4 0.01,-0.004 0.01,-0.006 z m -0.1191,-10e-4 c 0,-0.003 0,-0.005 0,-0.003 0,0.001 0,0.004 0,0.006 0,0.002 0,0.004 0,0.004 0,0 0,-0.003 0,-0.006 z m -0.2679,-0.006 c 0,-0.002 0,-0.003 0,-0.003 0,0 0,0.003 0,0.006 0,0.003 0,0.005 0,0.003 0,-10e-4 0,-0.004 0,-0.006 z m 0.2811,-0.0213 c 0,-0.003 -0.01,0.003 -0.01,0.01 10e-5,0.006 8e-4,0.005 0.01,-8.8e-4 0,-0.004 0,-0.008 0,-0.009 z m -0.1248,0.005 c 0,-0.003 0,-0.005 0,-0.003 0,10e-4 0,0.004 0,0.006 0,0.002 0,0.003 0,0.003 0,0 0,-0.003 0,-0.006 z m -0.2382,-0.0132 c 0,-0.004 0,-0.006 0,-0.005 0,10e-4 0,0.006 0,0.01 0,0.004 0,0.006 0,0.005 0,-10e-4 0,-0.006 0,-0.01 z m 0.2809,0.004 c 0,-0.002 6e-4,-0.004 0,-0.004 0,0 0,0.002 0,0.004 0,0.002 7e-4,0.004 0,0.004 9e-4,0 0,-0.002 0,-0.004 z m 0.2065,-0.0183 c 10e-5,-0.0119 0,-0.009 -0.01,0.007 0,0.009 0,0.0114 0,0.007 0,-0.003 0,-0.01 0,-0.0146 z m -0.2626,-0.005 c 0,-0.005 -0.01,5e-4 -0.01,0.009 2e-4,0.008 3e-4,0.008 0.01,10e-4 0,-0.004 0,-0.009 0,-0.0103 z m -0.1773,-0.0238 c 0,-10e-4 0,0.002 -0.01,0.006 0,0.008 0,0.008 0,0.002 0,-0.004 0.01,-0.007 0,-0.009 z m 0.1907,0.007 c 0,-0.003 0,-0.005 0,-0.004 0,10e-4 0,0.004 0,0.006 0,0.002 0,0.004 0,0.004 0,0 0,-0.003 0,-0.006 z m 0.042,-0.041 c 0,-0.004 6e-4,-0.005 0,-0.004 -0.01,0.002 -0.01,0.0103 0,0.0103 0,0 0,-0.003 0.01,-0.006 z m 0.1884,-0.19878 c 0,-0.004 0,-0.007 0,-0.007 0,0 0,7e-4 0,0.002 0,8.5e-4 -10e-4,0.004 0,0.007 0,0.004 -2e-4,0.006 0,0.006 0,0 0.01,-0.003 0.01,-0.007 z m -0.067,-0.18634 c 0,-0.008 0.01,-0.0171 0.01,-0.0195 0,-0.003 -0.018,0.0277 -0.018,0.0333 0,0.005 0,-7.4e-4 0.011,-0.0138 z m 0.012,-0.0418 c 0,-0.006 0,-0.0104 0,-0.0154 0,-0.006 0,-0.005 -0.01,0.008 -0.01,0.0174 -0.01,0.0163 0,0.0163 0,0 0.01,-0.004 0.01,-0.009 z m 0.079,-0.006 c 0,-0.002 -2e-4,-0.003 0,-10e-4 -0.01,0.002 -0.01,0.005 0,0.005 0,0 0,-0.002 0.01,-0.004 z m 0.1413,2.1e-4 c 0,-0.002 4e-4,-0.005 0,-0.006 0,-0.001 0,2.7e-4 0,0.003 0,0.007 0,0.008 0.01,0.002 z m -0.4819,-0.0691 c 0,-0.006 -6e-4,-0.006 0,-0.002 0,0.003 0,0.009 0,0.013 0,0.006 7e-4,0.006 0,0.002 0,-0.003 0,-0.009 0,-0.013 z m 0.1751,-0.0475 c 0,-0.007 -5e-4,-0.008 -0.01,-0.002 0,0.003 0,0.008 0,0.0102 0,0.006 0.01,0.001 0.01,-0.008 z m -0.078,-0.0208 c 0,-0.004 0,-0.008 0,-0.009 0,-0.003 -0.019,0.005 -0.022,0.0109 0,0.008 0.015,0.006 0.02,-0.002 z m 0.1969,-0.0691 c 8e-4,-0.004 -5e-4,-0.006 0,-0.005 0,9.2e-4 -0.01,0.005 -0.01,0.008 -9e-4,0.004 5e-4,0.006 0,0.005 0,-9.2e-4 0.01,-0.005 0.01,-0.008 z m 0.4508,-0.015 c 0,-0.006 0,-0.0168 0,-0.0168 0,0 -0.012,0.0158 -0.012,0.0206 0,0.004 0.011,10e-4 0.015,-0.004 z m -0.5507,-0.0987 c 0,-0.002 -8e-4,-0.004 0,-0.004 -9e-4,0 0,0.002 0,0.004 0,0.002 -5e-4,0.004 0,0.004 0,0 0,-0.002 0,-0.004 z m 0.4315,-0.0279 c 0,-0.006 -6e-4,-0.006 0,-0.002 0,0.003 0,0.009 0,0.013 0,0.006 6e-4,0.006 0,0.002 0,-0.003 0,-0.009 0,-0.013 z m 0.2085,-0.003 c 0,-0.01 0,-0.007 -0.01,0.007 0,0.008 0,0.01 0,0.006 0,-0.003 0,-0.009 0,-0.0127 z m 0.102,0.003 c 0,-0.0111 0,-0.0111 0,-0.003 0,0.005 0,0.0102 0,0.0124 0,0.005 0,0.004 0.01,-0.01 z m -0.5508,0.004 c 0,-0.003 6e-4,-0.005 0,-0.004 0,10e-4 0,0.004 0,0.006 0,0.005 0,0.004 0.01,-0.002 z m 0.2667,-0.004 c 0,-0.005 0,-0.0103 0,-0.011 0,-0.003 -0.01,0.005 -0.012,0.0124 0,0.012 0,0.0107 0.01,-10e-4 z m 0.2267,-0.01 c 0,-0.007 -7e-4,-0.007 0,-0.003 0,0.007 0,0.0112 0,0.0112 0,0 0,-0.004 0,-0.008 z m -0.056,-0.009 c 0,-0.003 0,-0.005 0,-0.003 0,10e-4 0,0.005 0,0.008 0,0.003 0,0.005 0,0.003 0,-10e-4 0,-0.005 0,-0.008 z m 0.1211,-0.0272 c 0,-0.006 -0.01,-10e-4 -0.01,0.008 0,0.007 5e-4,0.008 0.01,0.002 0,-0.003 0,-0.008 0,-0.0102 z m -0.1164,-9e-5 c 0,-0.008 -3e-4,-0.0122 -0.01,-0.009 0,0.003 0,0.0164 10e-5,0.0164 0,0 0,-0.003 0.01,-0.007 z m -0.3248,-0.002 c 0,-0.003 0,-0.005 0,-0.004 -0.01,0.002 -0.01,0.0103 0,0.0103 0,0 0.01,-0.003 0.01,-0.006 z m 0.1191,-0.0146 c 0,-0.003 -6e-4,-0.006 0,-0.006 -8e-4,0 0,0.003 0,0.006 0,0.003 -5e-4,0.006 0,0.006 0,0 0,-0.003 0,-0.006 z m 0.1168,-0.0225 c 0,-0.003 6e-4,-0.005 0,-0.004 0,10e-4 0,0.004 0,0.006 0,0.005 0,0.004 0.01,-0.002 z m -0.056,-0.0296 c 0,-0.003 0,-0.006 0,-0.006 -8e-4,0 0,0.003 0,0.006 0,0.003 0,0.006 0,0.006 0,0 0,-0.003 0,-0.006 z m -0.4256,-0.0263 c 0,-0.003 0,-0.005 0,-0.005 0,0 0,0.003 0,0.008 0,0.004 0,0.007 0,0.005 0,-10e-4 0,-0.005 0,-0.008 z m 0.6401,-0.0302 c 0,-0.007 -0.01,-0.003 -0.01,0.006 0,0.006 -10e-4,0.007 0,0.003 0,-0.002 0.01,-0.007 0.01,-0.01 z m -0.2717,-10e-4 c 0,-0.002 -7e-4,-0.004 0,-0.004 -9e-4,0 0,0.002 0,0.004 0,0.002 -6e-4,0.004 0,0.004 0,0 0,-0.002 0,-0.004 z m 0.3801,-0.0349 c 0,-0.008 0,-0.01 0,-0.009 0,7.1e-4 -0.01,0.005 -0.01,0.0118 0,0.0138 0.01,0.0116 0.011,-0.003 z m -0.3804,-0.0144 c 0,-0.005 0,-0.01 0,-0.0118 0,-0.004 -0.01,0.007 -0.01,0.0156 -5e-4,0.007 0,0.005 0.01,-0.004 z m 0.3072,0.005 c 0,-0.002 4e-4,-0.005 0,-0.006 0,-10e-4 0,2.7e-4 0,0.003 0,0.007 0,0.008 0.01,0.002 z m 0.043,-0.017 c 0,-0.003 0,-0.006 0,-0.006 0,0 0,0.003 0,0.006 0,0.003 0,0.006 0,0.006 0,0 0,-0.003 0,-0.006 z m -0.086,-0.0149 c 0,-0.003 -6e-4,-0.006 0,-0.006 -8e-4,0 0,0.003 0,0.006 0,0.003 -5e-4,0.006 0,0.006 0,0 0,-0.003 0,-0.006 z m -0.2977,-0.013 c 0,-0.004 -6e-4,-0.007 0,-0.007 -8e-4,0 0,0.003 0,0.007 -10e-4,0.004 -4e-4,0.007 0,0.007 0,0 0,-0.003 0,-0.007 z m 0.052,-0.0558 c 0,-0.002 0,-0.004 0,-0.004 0,0 0,0.002 0,0.004 0,0.002 0,0.004 0,0.004 0,0 0,-0.002 0,-0.004 z m -0.1004,-0.004 c 0,-0.002 -8e-4,-0.004 0,-0.004 -9e-4,0 0,0.002 0,0.004 0,0.002 -5e-4,0.004 0,0.004 0,0 0,-0.002 0,-0.004 z m 0.2444,-0.0677 c 0,-0.003 0,-0.002 0,0.002 -10e-5,0.004 8e-4,0.006 0,0.005 0,-10e-4 0,-0.004 3e-4,-0.007 z m 0.064,-0.0198 c 0,-0.003 0,-0.006 0,-0.006 0,0 -0.01,0.006 -0.01,0.009 0,0.004 0.01,0.003 0.01,-0.003 z m -0.01,-0.013 c 0,-0.002 0,-0.004 -0.01,-0.004 0,0 0,0.002 0,0.004 0,0.002 0,0.004 0.01,0.004 0,0 0,-0.002 0,-0.004 z m 0.519,3.56847 c -0.01,-0.004 -0.012,-0.007 -0.015,-0.007 0,-5e-5 -0.01,-0.003 -0.012,-0.008 -0.01,-0.008 -0.01,-0.008 -0.01,9.3e-4 v 0.009 l -0.01,-0.0104 c -0.01,-0.006 -0.01,-0.0127 -0.01,-0.0154 0,-0.006 -0.015,-0.0105 -0.024,-0.007 -0.01,0.002 -0.01,5.9e-4 0,-0.0149 0,-0.0193 0,-0.0205 -0.012,-0.01 -0.01,0.007 -0.019,0.009 -0.023,0.005 0,-0.004 0.01,-0.0239 0.012,-0.023 0,6e-4 0.01,-0.003 0.01,-0.01 10e-4,-0.009 -1e-4,-0.0103 -0.01,-0.009 0,7.1e-4 -0.01,-0.002 -0.013,-0.005 -0.01,-0.009 -0.013,-0.008 -0.02,0.006 -0.01,0.01 -0.01,0.0108 -0.01,0.005 -8e-4,-0.004 3e-4,-0.009 0,-0.011 0.01,-0.006 0,-0.0105 0,-0.009 -0.01,8.6e-4 -0.01,-0.002 -0.01,-0.0127 -9e-4,-0.0102 0,-0.0132 -0.01,-0.0117 0,0.002 -0.01,-0.002 -0.01,-0.016 -10e-5,-0.0167 -5e-4,-0.0175 -0.01,-0.0109 0,0.004 -0.01,0.0102 -0.01,0.0138 0,0.004 0,0.006 -0.01,0.004 0,-0.001 -0.01,-0.007 -0.01,-0.0181 0,-0.0171 -0.01,-0.0261 -0.013,-0.0132 0,0.004 0,0.008 -0.01,0.009 0,0.002 -0.01,-8.4e-4 -0.01,-0.009 0,-0.008 0,-0.0119 0.01,-0.0133 0.01,-0.002 0.011,-0.0197 0,-0.0197 0,0 0,-0.003 0,-0.007 0,-0.004 0,-0.0104 0,-0.014 0,-0.004 -0.01,-0.0118 -0.01,-0.0183 0,-0.009 -0.01,-0.011 -0.01,-0.008 -0.01,0.006 -0.01,0.003 -0.01,-0.0128 0,-0.0135 0.01,-0.0192 0.013,-0.009 9e-4,0.003 0,0.002 7e-4,-0.002 -6e-4,-0.004 1e-4,-0.007 0,-0.007 0,0 0,-0.003 0.01,-0.007 0,-0.006 0,-0.0102 0,-0.0245 0,-0.01 -0.01,-0.0193 -0.01,-0.0217 3e-4,-0.002 3e-4,-0.0149 1e-4,-0.028 -4e-4,-0.0194 0,-0.0233 -0.01,-0.0215 0,0.001 -0.01,-1.5e-4 -0.01,-0.005 0,-0.004 0,-0.008 0.01,-0.009 0.01,-0.002 0.01,-0.004 0.01,-0.0237 -9e-4,-0.0203 -5e-4,-0.0216 0.01,-0.0205 0.01,8.5e-4 0.01,-10e-4 0.01,-0.009 0,-0.005 0.011,-0.0169 0.023,-0.0265 0.012,-0.009 0.024,-0.0193 0.028,-0.0223 0.01,-0.006 0.014,-0.004 0.014,0.005 10e-5,0.003 0,-9.5e-4 0.01,-0.01 0,-0.009 0.01,-0.0161 0.01,-0.0162 0,-6e-5 0.01,-0.002 0.01,-0.003 0,-0.002 0.01,-0.002 0.01,0.002 0,0.007 0.01,0.007 0.016,-10e-4 0.01,-0.008 0.023,-0.0125 0.024,-0.007 0,0.007 0.01,-0.001 0.016,-0.0163 0.01,-0.0154 0.01,-0.017 0.015,-0.0105 0,0.002 0.01,0.003 0.016,0.002 0.01,-0.002 0.02,-0.0127 0.028,-0.0298 9e-4,-0.002 0,-7.9e-4 0.01,0.003 0,0.004 0.01,0.007 0.011,0.007 0,0 0.01,0.002 0.01,0.005 0,0.003 0.01,10e-4 0.012,-0.005 0.015,-0.0135 0.042,-0.028 0.058,-0.0311 0.01,-0.002 0.015,-0.005 0.017,-0.0115 0,-0.006 0.01,-0.009 0.014,-0.009 0.01,0 0.014,-0.005 0.021,-0.0112 0.01,-0.006 0.015,-0.0112 0.019,-0.0112 0,0 0.01,-0.002 0.01,-0.004 0,-0.002 0.01,-0.01 0.013,-0.0169 0.01,-0.01 0.015,-0.0127 0.021,-0.011 0.01,0.002 0.012,-0.003 0.027,-0.0179 0.011,-0.0111 0.026,-0.0246 0.033,-0.0301 0.011,-0.008 0.014,-0.0129 0.016,-0.0279 0,-0.0186 0.011,-0.0265 0.028,-0.0265 0.01,0 0.01,-0.002 0.01,-0.0109 0,-0.009 -6e-4,-0.0117 0.01,-0.0168 0.011,-0.006 0.013,-0.009 0.017,-0.0366 0,-0.008 0,-0.0131 0.01,-0.0118 0,10e-4 0,0.004 0,0.006 0,0.004 0.01,0.004 0.017,-8e-5 0,-0.003 0,-0.005 0,-0.0111 -0.01,-0.006 -0.01,-0.009 0,-0.017 0,-0.005 0.01,-0.009 0.012,-0.009 0,0 0.01,-0.002 0.01,-0.007 0,-0.004 0,-0.01 0.01,-0.014 0.01,-0.008 0.01,-0.0203 0,-0.0203 0,0 0,-0.002 0,-0.004 0,-0.002 0,-0.004 0.01,-0.004 0,0 0.01,-0.002 0.01,-0.005 0.015,-0.0495 0.02,-0.0586 0.032,-0.0586 0.01,0 0.01,6.2e-4 6e-4,0.013 0,0.008 -0.01,0.0113 -0.01,0.009 0,-0.005 -0.01,-0.002 -0.01,0.0124 0,0.008 -5e-4,0.0122 0.01,0.0178 0,0.004 0.01,0.007 0.011,0.006 0,-10e-4 0,-0.013 0.01,-0.0266 0,-0.0136 0,-0.0268 0.01,-0.0293 0,-0.003 0,-0.006 10e-4,-0.007 0,-0.002 -3e-4,-0.002 0,-0.002 0.01,0.002 0.016,-0.0165 0.017,-0.034 6e-4,-0.007 0,-0.0231 0.01,-0.0353 0.01,-0.0193 0.01,-0.0227 7e-4,-0.0261 0,-0.003 0,-0.008 0,-0.0248 0,-0.0115 0,-0.0245 0.01,-0.0289 0,-0.005 0,-0.0117 0,-0.0163 0,-0.0114 0,-0.0593 0,-0.0647 0,-0.003 0,-0.007 -3e-4,-0.0119 0,-0.004 0,-0.0116 0,-0.0168 0,-0.005 0,-0.0105 0,-0.0119 0,-0.003 0,-0.0343 0,-0.076 0,-0.009 0,-0.0517 0,-0.0944 6e-4,-0.0602 -3e-4,-0.0781 0,-0.0795 0,-0.002 -0.01,-0.0165 0,-0.0207 0,-0.003 0,-0.12229 5e-4,-0.13236 0,-0.006 0,-0.008 -0.01,-0.007 -0.01,0.003 -0.01,-0.002 -0.01,-0.0157 0,-0.008 0,-0.0117 -4e-4,-0.0117 -0.01,0 0,-0.0199 0.01,-0.0323 0.01,-0.0122 0.011,-0.0272 0,-0.0272 -0.01,0 0,-0.008 0,-0.0154 0.01,-0.01 0,-0.0321 -0.01,-0.0337 -0.01,-10e-4 -0.01,-0.002 0,-0.007 0.01,-0.01 0.013,-0.0298 0.01,-0.0406 -0.01,-0.011 -0.01,-0.0237 0,-0.0204 0,0.003 0.01,-0.002 0.01,-0.0271 v -0.0197 l -0.011,0.006 c -0.016,0.009 -0.023,0.005 -0.022,-0.0144 10e-4,-0.0139 0,-0.0157 0.01,-0.015 0.01,7.1e-4 0.01,-9.8e-4 0.01,-0.009 0,-0.007 0,-0.0102 -0.01,-0.0116 -0.011,-0.003 -0.01,-0.013 0.01,-0.0204 0.01,-0.003 0.011,-0.006 0.01,-0.007 0,-10e-5 0,-0.002 0,-0.005 4e-4,-0.0119 0,-0.0179 0,-0.0159 -0.01,0.004 -0.01,-0.0135 0,-0.0414 0,-0.0146 0,-0.0297 5e-4,-0.0335 0,-0.0124 0,-0.0475 0,-0.0551 0.01,-0.009 0.01,-0.0174 7e-4,-0.0149 0,10e-4 0,-0.006 0,-0.0345 10e-5,-0.02 0,-0.0385 0,-0.041 0,-0.003 0,-0.0113 0,-0.0195 8e-4,-0.008 -2e-4,-0.0155 0,-0.0161 0,-6.9e-4 -9e-4,-0.007 0,-0.0145 0,-0.007 0.01,-0.016 0.01,-0.0193 0,-0.003 0,-0.006 0,-0.006 0,0 0,-0.002 0,-0.004 0,-0.002 0,-0.003 0,-10e-4 0,0.002 0,-0.002 0,-0.0109 0,-0.007 0,-0.0197 0,-0.0273 0.01,-0.032 0.01,-0.0344 0,-0.0344 0,0 -0.01,-0.002 0,-0.008 0,-0.005 0,-0.0142 0,-0.0214 10e-5,-0.01 0,-0.0117 0,-0.007 0,0.005 0,0.005 0.01,0 0,-0.003 0,-0.009 0,-0.0137 0,-0.004 0,-0.0121 0,-0.0171 0,-0.005 0,-0.011 6e-4,-0.0136 0,-0.003 0,-0.003 -0.01,0.002 0,0.006 0,0.006 -0.01,10e-4 0,-0.004 0,-0.004 0,0.003 0,0.006 10e-5,0.008 0,0.008 0,0 -0.01,0.004 -0.01,0.009 0,0.006 0,0.009 -0.01,0.009 -0.01,0 -0.01,-0.01 0,-0.0251 0.01,-0.0101 0.01,-0.02 0.01,-0.0447 8e-4,-0.0237 0,-0.0306 0,-0.0274 0,0.002 -0.01,0.004 -0.01,0.004 0,0 0,-0.0214 0.01,-0.0276 0,-0.003 0,-0.0116 8e-4,-0.0232 0,-0.0106 0,-0.0219 6e-4,-0.0264 0,-0.01 0,-0.0289 -0.01,-0.0289 0,0 -0.01,-0.006 -0.01,-0.014 0,-0.008 -0.01,-0.014 -0.01,-0.014 0,0 -0.01,-0.003 -0.01,-0.006 0,-0.003 0,-0.006 0,-0.006 0,0 0,-0.002 0,-0.005 0,-0.003 0,-0.004 -0.01,-0.003 0,10e-4 -0.01,-10e-4 -0.01,-0.007 -8e-4,-0.006 0,-0.009 -0.013,-0.0116 -0.012,-0.003 -0.014,-0.006 -0.012,-0.0188 4e-4,-0.004 -0.01,-0.0161 -0.013,-0.0278 -0.01,-0.0155 -0.015,-0.0213 -0.022,-0.0213 -0.01,-8e-5 -0.01,-0.003 -0.01,-0.0116 -9e-4,-0.009 0,-0.0129 -0.014,-0.0175 -0.01,-0.004 -0.015,-0.0113 -0.019,-0.0194 0,-0.01 -0.01,-0.0131 -0.014,-0.0123 -0.01,7.3e-4 -0.01,-0.001 -0.01,-0.006 0,-0.0135 -0.013,-0.0248 -0.021,-0.0237 -0.01,10e-4 -0.018,-0.004 -0.015,-0.008 0,-0.002 0,-0.009 -0.01,-0.017 -0.01,-0.008 -0.01,-0.016 -0.01,-0.0187 0,-0.003 0,-0.006 0,-0.008 0,-0.002 -0.01,-0.008 -0.01,-0.0141 l -0.01,-0.0112 -0.01,0.0177 c 0,0.01 -0.01,0.0177 -0.01,0.0177 0,0 -0.01,-0.0162 -0.01,-0.0294 -4e-4,-0.0124 -0.01,-0.0136 -0.013,-0.002 0,0.007 -0.01,0.008 -0.01,0.005 0,-0.003 0,-0.008 0,-0.0139 0.01,-0.0293 0.01,-0.0376 0,-0.0376 0,0 0,0.004 -0.01,0.008 0,0.006 0,0.007 -0.01,0.004 0,-0.002 -0.01,-0.005 -0.016,-0.006 -0.012,-9.4e-4 -0.013,0 -0.014,0.009 0,0.0103 -0.01,0.0167 -0.014,0.0102 0,-0.002 -10e-5,-0.006 0,-0.01 0,-0.005 0,-0.007 0,-0.0106 -0.01,-0.004 -0.01,-0.004 -0.021,9.9e-4 -0.01,0.003 -0.016,0.005 -0.017,0.003 0,-0.005 -9e-4,-0.0299 0.01,-0.0371 0.01,-0.007 0.01,-0.007 0,-0.005 -0.01,0.002 -0.01,10e-4 -0.01,-0.007 0,-0.0122 -0.01,-0.0123 -0.011,-2.4e-4 0,0.005 -0.01,0.009 -0.01,0.009 0,0 0,0.002 0,0.005 0,0.007 -0.011,0.0163 -0.011,0.009 -10e-5,-0.003 0,-0.008 -0.01,-0.0123 -0.01,-0.007 -0.01,-0.007 -0.01,-3.6e-4 -0.01,0.009 -0.015,0.004 -0.012,-0.006 0,-0.006 3e-4,-0.008 -0.01,-0.009 0,-0.001 -0.01,-0.004 -0.01,-0.007 0,-0.007 -0.01,-0.0106 -0.015,-0.005 0,0.003 -0.01,0.003 -0.01,10e-4 0,-0.002 0,-7.4e-4 0,0.002 0,0.004 0,0.003 0,-0.005 -10e-5,-0.007 0,-0.0102 -0.01,-0.0102 0,0 -0.01,0.003 -0.01,0.006 0,0.005 -0.01,0.008 -0.013,0.005 0,-5.4e-4 -0.01,-7.5e-4 -0.012,-4.8e-4 -0.01,4.1e-4 -0.01,-10e-4 -0.01,-0.0121 0,-0.007 0,-0.0134 -0.01,-0.0145 0,-10e-4 0,-0.006 0,-0.0113 6e-4,-0.005 0,-0.012 -0.01,-0.0157 0,-0.003 -0.01,-0.008 -0.01,-0.009 10e-4,-0.002 10e-5,-0.004 0,-0.005 0,-0.001 0,-0.006 0,-0.01 0,-0.004 0,-0.007 0,-0.007 0,0 0,-0.004 -0.01,-0.008 0,-0.007 0,-0.007 -0.01,0.003 0,0.006 -0.01,0.0129 -0.013,0.0157 -0.01,0.004 -0.01,0.004 -0.01,-0.002 0,-0.004 0,-0.01 0.01,-0.0125 0.01,-0.006 0.015,-0.0293 0.01,-0.0293 0,0 -0.01,-0.006 -0.01,-0.0195 l -3e-4,-0.0195 -0.014,-10e-4 c -0.01,-6.6e-4 -0.014,5.2e-4 -0.014,0.003 0,0.002 0,0.004 -0.01,0.004 0,0 -0.01,-0.002 0,-0.007 0,-0.004 0,-0.0115 0,-0.0177 7e-4,-0.006 0,-0.0158 0,-0.0214 0,-0.008 0,-0.0102 0,-0.0102 0,0 -0.01,10e-4 -0.01,0.003 -9e-4,0.002 0,7.5e-4 -5e-4,-0.002 0,-0.007 -0.01,-0.01 -0.01,-0.003 0,0.003 -0.01,0.006 -0.011,0.006 -0.01,0 -0.01,-0.001 -0.01,-0.0139 0,-0.008 0,-0.0222 0.01,-0.0322 0,-0.01 0.01,-0.023 0.01,-0.0288 0,-0.0113 0.01,-0.0147 0.01,-0.005 7e-4,0.004 0,7.7e-4 0.01,-0.009 0,-0.009 0.01,-0.0162 0,-0.0175 0,-0.003 -0.011,10e-4 -0.011,0.008 0,0.003 0,0.005 -0.01,0.005 -0.01,-5e-5 -0.01,-5.8e-4 -9e-4,-0.004 0,-0.002 0,-0.004 9e-4,-0.004 -0.01,-7e-5 -0.01,-0.0125 0,-0.0344 0,-0.008 0,-0.013 0.01,-0.0119 0,0.001 0,-5.9e-4 0.01,-0.004 0,-0.003 0,-0.006 0.01,-0.006 0,0 0.01,0.0141 0,0.0187 0,0.003 0,0.003 0,-4.6e-4 0.01,-0.003 0.01,-0.0102 0.011,-0.02 0,-0.008 0,-0.0177 0.01,-0.0209 0.01,-0.008 0.012,-0.0317 0.01,-0.028 0,0.001 0,0.005 0,0.008 0,0.003 0,0.005 0,0.005 -0.01,0 -0.01,-0.007 0,-0.0185 0,-0.006 0,-0.0113 0,-0.0113 0,0 -3e-4,-0.003 0,-0.007 0,-0.004 0.01,-0.007 0.01,-0.007 0,0 0.011,-0.005 0.016,-0.0112 0.01,-0.007 0.012,-0.0104 0.016,-0.009 0,10e-4 0.01,-3.7e-4 0.013,-0.004 0,-0.003 0.014,-0.01 0.023,-0.0145 0.01,-0.005 0.017,-0.0116 0.017,-0.0153 0,-0.0106 0.01,-0.0122 0.011,-0.005 0.01,0.009 0.015,0.006 0.02,-0.007 0,-0.0126 0.015,-0.0118 0.024,0.002 0,0.006 0.01,0.0111 0.012,0.0111 0,0 0,0.003 0,0.009 0,0.0114 0,0.016 0.01,0.006 0,-0.004 0.01,-0.007 0.01,-0.007 0.02,0.002 0.026,-7.1e-4 0.028,-0.0113 0,-0.007 0.01,-0.0115 0.01,-0.0128 0,-10e-4 0.01,-0.006 0.01,-0.01 0,-0.0105 0.01,-0.01 0.01,0.002 0,0.005 0,0.009 0.01,0.007 0,-10e-4 0,-3.4e-4 0.01,0.002 0,0.002 0,0.003 0.01,0.002 0,-0.003 0.018,0.0126 0.018,0.0213 0,0.01 0.01,0.008 0.011,-0.002 0,-0.005 0,-0.009 0.01,-0.009 0.01,0 0.02,0.0126 0.02,0.0172 0,0.006 0,0.007 0.01,0.002 0,-0.002 0.01,-0.004 0.014,-0.006 0.01,-0.002 0.01,-10e-4 0.01,0.005 0,0.005 0,0.009 0.01,0.011 0,0.002 0.01,0.005 0.01,0.007 7e-4,0.002 0.01,0.005 0.012,0.006 0.01,10e-4 0.012,0.004 0.013,0.005 0,0.002 0.01,0.003 0.016,0.003 0.012,0 0.013,-9.8e-4 0.012,-0.008 0,-0.007 0,-0.007 0,9.3e-4 0,0.005 0,0.0118 0,0.0153 -9e-4,0.004 9e-4,0.007 0,0.009 0,10e-4 0.01,0.005 0.01,0.007 0,0.003 0,0.007 0.01,0.01 0,0.004 0.01,0.003 0.014,-10e-4 0.01,-0.006 0.01,-0.005 0.014,0.002 0,0.005 0.01,0.0128 0.01,0.0185 0,0.0124 0.01,0.0134 0.011,0.002 8e-4,-0.005 0,-0.008 0.01,-0.008 0.01,0 0.01,0.003 0.01,0.0121 0,0.0106 0,0.0121 0.012,0.0121 0.01,0 0.011,0.002 0.012,0.004 0,0.006 0.014,1.4e-4 0.016,-0.008 0,-0.004 0,-0.007 0.01,-0.007 0,0 0.01,-0.003 0.01,-0.006 0.01,-0.009 0.015,-0.007 0.015,0.006 0,0.006 0,0.0112 0,0.0112 0,0 0,-0.003 0,-0.006 0,-0.008 -0.01,-0.005 -0.012,0.006 0,0.008 0,0.009 0.013,0.007 l 0.016,-0.001 v 0.0149 0.0149 l 0.011,-0.0102 c 0.016,-0.0147 0.02,-0.0134 0.016,0.005 0,0.0212 0,0.0274 0.01,0.009 0.01,-0.0161 0.019,-0.0174 0.019,-0.002 10e-5,0.005 0,0.0171 0.01,0.0266 l 0.01,0.0174 0.01,-0.005 c 0.01,-0.005 0.011,-0.005 0.017,0.006 0,0.008 0.01,0.0108 0.014,0.01 0,-0.001 0.01,5.8e-4 0.012,0.004 0,0.003 0.01,0.005 0.014,0.005 0,0 0.01,0.001 0.01,0.003 0,0.003 0.011,0.008 0.02,0.009 0.01,10e-4 0.021,0.0108 0.019,0.016 0,0.003 -4e-4,0.009 0,0.0125 0,0.004 0,0.0113 0,0.0165 4e-4,0.005 0,0.01 0.01,0.01 0,0 0,0.003 0,0.006 0,0.006 5e-4,0.006 0.01,-5.6e-4 0.01,-0.009 0.012,-0.002 0.01,0.0112 0,0.005 -7e-4,0.009 0,0.009 0,0 0,0.003 0,0.007 0,0.004 0,0.007 0,0.007 0,0 0,-0.004 0,-0.008 10e-5,-0.007 7e-4,-0.007 0,-0.003 0,0.005 0,0.005 0,-9.3e-4 0,-0.004 0,-0.009 0,-0.0125 0,-0.004 -6e-4,-0.006 0,-0.005 0,7.4e-4 0.01,0.005 0.01,0.0106 8e-4,0.005 0,0.0118 0.01,0.0149 0,0.003 0.01,0.009 0.01,0.014 0,0.005 0,0.008 0.01,0.008 0,0 0.01,0.005 0.01,0.0121 0,0.007 0.01,0.0129 0.01,0.014 0,10e-4 0.01,0.009 0.01,0.0186 0.01,0.0202 0.017,0.0306 0.017,0.0222 2e-4,-0.003 0,-4.2e-4 0,0.006 0,0.009 0,0.011 0.012,0.0101 0.01,-7.3e-4 0.01,10e-4 0.012,0.006 0,0.004 0,0.008 0.01,0.009 0,0.001 0.01,0.006 0.01,0.0119 0,0.0143 0.014,0.036 0.038,0.0616 0,0.004 0.01,0.0118 0.012,0.0181 0,0.009 0.01,0.011 0.014,0.009 0.01,-0.002 0.01,-10e-4 0.01,0.0119 0,0.008 0,0.0122 -2e-4,0.01 0,-0.004 0,-0.004 0.01,-7e-4 0,0.003 0,0.009 0,0.0169 0,0.0103 -9e-4,0.0128 0,0.0128 0,0 0.01,0.004 0.01,0.008 0,0.007 0,0.007 0,0.002 10e-5,-0.004 0,-0.009 0.01,-0.012 0,-0.004 0.01,-0.003 0.01,0.008 0,0.007 0,0.0146 2e-4,0.0166 0,0.002 2e-4,0.004 0,0.004 0,0 0.01,0.008 0.012,0.0184 0,0.0131 0.01,0.0187 0.014,0.0195 0.01,9.2e-4 0.01,0.004 0.01,0.0216 0,0.0284 0.011,0.04 0.016,0.0216 0,-0.005 0,-0.007 0,-0.006 0,0.001 10e-5,0.008 0,0.0158 0,0.0109 0,0.0149 -10e-5,0.021 0,0.004 0,0.0104 0,0.0138 -10e-4,0.003 -5e-4,0.009 0,0.0114 0,0.004 0,0.002 0.01,-0.008 0,-0.0145 0.016,-0.027 0.022,-0.0236 0,0.002 0,0.0272 0,0.0464 0,0.0125 -10e-5,0.0194 0.01,0.0187 0,-1.3e-4 0,-10e-4 -10e-4,-0.002 -0.01,-0.003 -0.01,-0.009 0,-0.0196 0.01,-0.009 0.01,-0.009 0.01,-0.001 0,0.005 0.01,0.007 0.01,0.006 0.01,-0.002 0.01,-3.6e-4 0.01,0.0161 0,0.0182 -0.018,0.0465 -0.031,0.0564 -0.01,0.004 -0.01,0.01 -0.01,0.026 10e-5,0.0222 0,0.0283 0.011,0.031 0,10e-4 0.01,0.009 0.01,0.0275 5e-4,0.0277 0.01,0.0415 0.017,0.0354 0.01,-0.004 0.015,-8.3e-4 0.015,0.006 0,0.003 0,0.005 -0.01,0.005 -0.01,0 -0.01,0.003 -0.012,0.008 0,0.0107 0,0.0266 0,0.0282 0,6.8e-4 0,0.004 0,0.007 -10e-5,0.005 -7e-4,0.005 0,10e-4 0,-0.004 0,-0.004 0,0.002 0,0.009 0.01,0.0387 0.012,0.0387 0,0 0,0.005 0,0.0112 0,0.006 0,0.0112 0,0.0112 0,0 0,-0.003 0,-0.006 0,-0.003 0,-0.005 0,-0.004 0,0.004 -0.01,0.0694 -8e-4,0.0694 0,0 0,0.008 0,0.0233 0,0.0227 0,0.0324 0.01,0.0189 0,-0.005 0,-0.004 0,0.004 2e-4,0.0173 -0.01,0.0381 -0.013,0.0452 0,0.005 -0.01,0.0102 0,0.0219 0,0.009 6e-4,0.017 0,0.019 0,0.004 -3e-4,0.0312 0,0.0312 0,0 0,0.002 0,0.004 0,0.002 -4e-4,0.006 0,0.009 0.01,0.007 0.01,0.0448 -3e-4,0.0593 -0.01,0.0167 -0.01,0.0649 0,0.0756 0,0.008 0,0.01 0,0.0135 -0.01,0.004 -0.01,0.008 0,0.0275 0,0.0177 0,0.0284 0,0.047 0,0.0132 0,0.0267 0,0.0298 0,0.003 6e-4,0.008 0,0.0103 0,0.003 0,0.0269 0,0.0586 6e-4,0.0335 -4e-4,0.0557 0,0.0586 0,0.003 0,0.006 -2e-4,0.009 0,0.003 0,0.017 0,0.0326 0,0.0543 0,0.10617 4e-4,0.11449 0,0.007 0,0.01 0,0.0133 -0.01,0.004 -0.01,0.008 0,0.0176 0,0.022 0.01,0.0816 0,0.0816 -0.01,0 -0.01,0.0247 0,0.0375 0,0.008 0,0.0167 4e-4,0.0281 0,0.0128 0,0.0183 0,0.0248 0,0.006 0,0.0128 0,0.0269 -0.01,0.0402 -0.01,0.0611 0,0.067 0,0.004 0.01,0.0106 0,0.0288 0,0.0128 0,0.0341 0,0.0474 6e-4,0.0133 9e-4,0.0292 7e-4,0.0353 0,0.0833 0,0.11598 -9e-4,0.11908 0,0.002 0,0.0104 0.01,0.0186 0,0.013 0,0.0164 -0.01,0.0266 -0.014,0.0153 -0.016,0.0206 -0.01,0.0289 0,0.005 0,0.009 10e-4,0.0144 0,0.004 -0.01,0.0201 -0.01,0.0356 0,0.0155 -0.01,0.0302 -0.01,0.0327 0,0.003 0,0.007 6e-4,0.0127 0,0.006 0,0.0119 -3e-4,0.0245 0,0.009 -0.01,0.0171 -0.01,0.0179 0,8.4e-4 0,0.009 0,0.0173 -6e-4,0.009 0,0.024 -0.01,0.0341 -0.01,0.0158 -0.01,0.02 0,0.0308 0,0.009 0,0.0146 7e-4,0.0198 0,0.004 0,0.01 0,0.0132 0,0.008 -0.01,0.0275 -0.014,0.0322 0,0.002 -0.01,0.005 -0.01,0.007 9e-4,0.002 0,0.007 -0.01,0.0119 -0.014,0.0115 -0.027,0.0355 -0.026,0.05 3e-4,0.006 -10e-4,0.0145 0,0.0186 0,0.004 0,0.0135 -0.01,0.0209 0,0.007 -0.01,0.0165 -0.01,0.0201 0,0.004 -0.01,0.0131 -0.011,0.021 0,0.009 -0.01,0.0143 -0.01,0.0143 -0.01,0 -0.016,0.0111 -0.016,0.0242 -2e-4,0.0113 -0.01,0.0242 -0.014,0.0242 -0.01,0 -0.031,0.0446 -0.031,0.055 0,0.003 0,0.007 -0.01,0.009 -0.01,0.002 -0.01,0.007 -0.01,0.0112 0,0.004 0,0.008 -0.01,0.009 0,10e-4 -0.01,0.008 -0.01,0.0151 0,0.0143 -0.01,0.0194 -0.02,0.0133 0,-0.003 -0.01,-0.002 -0.019,0.002 -0.01,0.003 -0.014,0.007 -0.014,0.009 0,10e-4 -0.01,0.003 -0.01,0.004 0,8.1e-4 -0.012,0.011 -0.019,0.0253 -0.01,0.0132 -0.014,0.0256 -0.016,0.0277 0,0.002 0,0.007 0,0.0119 0,0.007 0,0.008 -0.021,0.01 -0.014,0.001 -0.024,0.004 -0.031,0.01 -0.01,0.004 -0.016,0.011 -0.023,0.0146 -0.01,0.004 -0.018,0.0119 -0.024,0.0186 -0.01,0.007 -0.014,0.0121 -0.015,0.0121 0,0 -0.01,0.005 -0.015,0.0115 -0.01,0.006 -0.014,0.0103 -0.016,0.009 0,-10e-4 -0.018,0.0114 -0.036,0.0296 -0.018,0.018 -0.039,0.0353 -0.048,0.0394 -0.012,0.006 -0.018,0.0113 -0.024,0.0242 -0.01,0.0132 -0.01,0.0165 -0.015,0.0148 0,-10e-4 -0.01,4.2e-4 -0.011,0.006 0,0.007 0,0.008 -0.011,0.002 0,-0.004 -0.011,-0.006 -0.019,-0.004 -0.013,0.002 -0.018,0.007 -0.021,0.0222 0,0.006 -0.01,0.013 -0.011,0.0162 0,0.003 -0.01,0.009 -0.011,0.0128 0,0.004 -0.01,0.007 -0.011,0.007 0,0 -0.01,0.002 -0.011,0.004 0,0.003 0,0.002 -0.01,-0.003 0,-0.006 -0.01,-0.005 -0.01,0.007 -0.01,0.0156 -0.012,0.0202 -0.015,0.0124 0,-0.003 0,-0.006 -0.01,-0.006 0,0 -0.02,0.0303 -0.024,0.0456 0,0.006 0,0.0102 -0.01,0.0102 -0.01,0 -0.018,-0.008 -0.018,-0.015 0,-0.0115 -0.01,-0.009 -0.01,0.004 0,0.006 0,0.0121 -0.01,0.0132 0,0.003 0,0.0164 5e-4,0.0164 0,0 0,10e-4 0,0.003 0,0.002 -0.01,0.003 -0.013,0.003 -0.012,-2.5e-4 -0.013,-10e-4 -0.011,-0.009 v -0.008 l -0.013,0.008 c -0.01,0.006 -0.013,0.0111 -0.013,0.0187 -10e-5,0.008 0,0.0102 -0.01,0.0102 0,0 -0.01,0.004 -0.012,0.008 0,0.007 -0.01,0.008 -0.027,0.005 -0.013,-0.001 -0.024,-0.004 -0.026,-0.006 0,-0.002 0,-0.004 -8e-4,-0.004 0,0 9e-4,-0.003 0,-0.008 -0.01,-0.0112 -0.013,-0.007 -0.015,0.009 0,0.0174 -0.014,0.0274 -0.036,0.0294 -0.01,8e-4 -0.019,0.003 -0.022,0.005 -0.01,0.003 -0.01,0.002 -0.016,-0.003 z m 0.1062,-0.0593 c 0,-0.002 -3e-4,-0.004 0,-0.004 0,0 -0.01,0.002 -0.01,0.004 0,0.002 0,0.004 0,0.004 0,0 0,-0.002 0.01,-0.004 z m -0.3138,-0.22042 c 0,-0.003 0,-10e-4 0,0.008 2e-4,0.0121 5e-4,0.0123 0,0.004 0,-0.006 0,-0.01 -2e-4,-0.0128 z m 0.9852,-0.23544 c 2e-4,-0.006 -4e-4,-0.006 0,-0.002 0,0.003 0,0.01 0,0.0149 2e-4,0.009 5e-4,0.009 0,0.002 0,-0.004 0,-0.0108 0,-0.0149 z m -0.4574,-0.26979 c 0,-0.002 0,-0.004 0,-0.004 0,0 0,0.002 0,0.004 0,0.002 0,0.004 0,0.004 0,0 0,-0.002 0,-0.004 z m 0.5545,-0.33171 c 0,-0.008 -0.01,-2.2e-4 -0.014,0.0119 v 0.0128 l 0.01,-0.0104 c 0.01,-0.006 0.01,-0.0122 0.01,-0.0143 z m 0.053,-0.25086 c 0,-0.003 6e-4,-0.005 0,-0.004 0,0.001 0,0.004 0,0.006 0,0.005 0,0.004 0.01,-0.002 z m 0.078,-0.10028 c 10e-4,-0.005 3e-4,-0.009 0,-0.009 0,0 0,0.004 0,0.009 0,0.005 6e-4,0.009 0,0.009 8e-4,0 0,-0.004 0,-0.009 z m -0.5193,-0.28537 c 0,-0.003 0,-0.002 0,0.002 -10e-5,0.004 7e-4,0.006 0,0.005 0,-10e-4 0,-0.004 3e-4,-0.007 z m 0.2775,-0.29154 c 9e-4,-0.005 6e-4,-0.009 -8e-4,-0.009 -0.01,0 -0.011,0.009 -0.011,0.018 0,0.007 10e-4,0.008 0.01,0.005 0,-0.002 0.01,-0.008 0.01,-0.0135 z m -0.2714,-0.025 c 0,-0.008 0,-0.014 0,-0.014 0,0 -0.012,0.0215 -0.012,0.0279 0,0.005 0,10e-4 0.01,-0.0139 z m 0,-0.0705 c 0,-0.003 0,-0.002 0,0.002 -2e-4,0.004 7e-4,0.006 0,0.005 0,-10e-4 0,-0.004 3e-4,-0.007 z m 0.05,-0.0435 c -10e-5,-0.005 -10e-4,-0.005 -0.01,0.001 -0.01,0.009 -0.01,0.0155 10e-5,0.01 0,-0.003 0.01,-0.007 0.01,-0.0107 z m 0.3909,-10e-4 c 0,-0.003 0,-0.009 0,-0.0139 0,-0.007 0,-0.008 0,-0.006 -0.01,0.006 -0.01,0.0242 0,0.0242 0,0 0,-0.002 0,-0.005 z m -0.034,-0.01 c 0,-0.009 0,-0.011 -0.01,-0.002 0,0.009 0,0.0135 0,0.0118 0,-8.4e-4 0.01,-0.005 0.01,-0.01 z m 0.019,-0.0271 c 0,-0.004 0,-0.006 0,-0.005 0,10e-4 0,0.006 0,0.01 0,0.004 0,0.006 0,0.005 0,-10e-4 0,-0.006 0,-0.01 z m -0.3485,-0.0188 c 0,-0.008 3e-4,-0.0142 0,-0.0142 0,0 0,0.002 0,0.005 -1e-4,0.003 0,0.008 0,0.0112 0,0.005 0,0.007 0,0.007 0,0 0.01,-0.004 0.01,-0.008 z m 0.1253,-0.0349 c 0,-0.003 0,-0.005 0,-0.003 0,10e-4 0,0.004 0,0.006 0,0.002 0,0.003 0,0.003 0,0 0,-0.003 0,-0.006 z m 0.2928,-0.0954 c 0,-0.003 0,-0.002 0,0.002 -2e-4,0.004 7e-4,0.006 0,0.005 0,-10e-4 0,-0.004 3e-4,-0.007 z m -0.2754,-0.10792 c 0,-0.003 0,-0.002 0,0.002 -10e-5,0.004 8e-4,0.006 0,0.005 0,-10e-4 0,-0.004 3e-4,-0.007 z m 0.1856,-0.006 c 0,-0.003 -0.01,0.003 -0.01,0.01 10e-5,0.006 8e-4,0.005 0.01,-8.8e-4 0,-0.004 0,-0.008 0,-0.009 z m -0.177,-0.0364 c 0,-0.009 0,-0.0162 0,-0.0152 0,0.002 0,0.0321 0,0.0321 8e-4,0 0,-0.008 0,-0.017 z m -0.1575,10e-4 c 0,-0.003 0,-4.7e-4 0,0.005 0,0.005 8e-4,0.007 0,0.005 10e-4,-0.003 10e-4,-0.007 0,-0.009 z m 0.067,-0.0184 c 0,-0.003 0,-0.002 0,0.002 -2e-4,0.004 7e-4,0.006 0,0.005 0,-10e-4 0,-0.004 3e-4,-0.007 z m -0.1165,-0.016 c 0,-0.003 5e-4,-0.006 0,-0.006 0,0 0,0.003 0,0.006 0,0.003 7e-4,0.006 0,0.006 8e-4,0 0,-0.003 0,-0.006 z m 0.2703,-0.0207 c 0,-0.004 0,-0.007 0,-0.005 0,10e-4 0,0.005 0,0.008 0,0.003 0,0.005 0,0.005 0,0 0,-0.003 0,-0.008 z m -0.2803,-0.0786 c 0,-0.003 0,-0.002 0,0.002 -10e-5,0.004 8e-4,0.006 0,0.005 0,-10e-4 0,-0.004 3e-4,-0.007 z m -0.081,-0.11882 c 0,-0.002 0,-0.003 0,-10e-4 0,10e-4 0,0.004 0,0.006 0,0.002 0,0.003 0,10e-4 0,-10e-4 0,-0.004 0,-0.006 z m 0.4539,-0.14562 c 0,-0.004 0,-0.007 0,-0.007 0,0 -0.01,0.009 -0.01,0.0196 0,0.008 10e-5,0.008 0.01,6.3e-4 0,-0.004 0.01,-0.0102 0.01,-0.0137 z m 0.01,-0.0388 c 0,-0.004 -0.01,0.003 -0.01,0.011 v 0.008 l 0.01,-0.009 c 0,-0.005 0.01,-0.009 0,-0.0105 z m -0.4025,0.01 c 0,-0.002 5e-4,-0.004 0,-0.004 0,0 0,0.002 0,0.004 0,0.002 7e-4,0.004 0,0.004 9e-4,0 0,-0.002 0,-0.004 z m -0.01,-0.0207 c 0,-0.003 0,-0.005 0,-0.003 0,10e-4 0,0.004 0,0.006 0,0.005 0.01,0.004 0.01,-0.002 z m -0.3052,-0.0444 c 0,-0.003 0,-0.006 0,-0.006 0,0 0,0.003 0,0.006 0,0.003 0,0.006 0,0.006 0,0 0,-0.003 0,-0.006 z m -0.056,-0.006 c 0,-0.002 0,-0.004 0,-0.004 0,0 0,0.002 0,0.004 0,0.002 0,0.004 0,0.004 0,0 0,-0.002 0,-0.004 z m 0.1987,-0.0355 c 0,-0.003 6e-4,-0.005 0,-0.004 0,10e-4 0,0.004 0,0.006 0,0.005 0,0.004 0.01,-0.002 z m -0.2992,-0.055 c 0,-0.0107 -4e-4,-0.0111 -0.01,-0.005 0,0.003 -0.01,0.0125 -0.01,0.0203 v 0.0143 l 0.01,-0.009 c 0,-0.005 0.01,-0.014 0.01,-0.0203 z m 0.4635,-0.024 c 0,-0.003 -0.01,0.01 -0.01,0.0196 0,0.0193 4e-4,0.0193 0.01,0 0,-0.0102 0,-0.0191 0,-0.0196 z m -0.024,0.0231 c 0,-0.003 0,-0.005 0,-0.005 0,0 0,0.003 0,0.008 0,0.004 0,0.007 0,0.005 0,-10e-4 0,-0.005 0,-0.008 z m -0.4263,-0.027 c 0,-0.005 0,-0.005 -0.01,0.003 0,0.0116 -3e-4,0.018 0,0.01 0,-0.003 0,-0.009 9e-4,-0.0126 z m -0.054,-0.002 c -1e-4,-0.007 -8e-4,-0.007 0,-0.003 0,0.007 0,0.0112 0,0.0112 0,0 0,-0.004 0,-0.008 z m 0.077,2.3e-4 c 0,-0.003 0,-0.002 0,0.002 -1e-4,0.004 8e-4,0.006 0,0.005 0,-10e-4 0,-0.004 3e-4,-0.007 z m -0.021,-0.0188 c -10e-5,-0.007 -8e-4,-0.007 0,-0.003 0,0.003 0,0.007 0,0.008 0,0.005 0.01,0.003 0.01,-0.005 z m 0.557,-0.0109 c 0,-0.003 0,-0.002 0,0.002 -2e-4,0.004 7e-4,0.006 0,0.005 0,-0.001 0,-0.004 3e-4,-0.007 z m -0.1107,-0.0272 c 10e-5,-0.0111 -0.01,3.2e-4 -0.01,0.0167 v 0.013 l 0.01,-0.0112 c 0,-0.006 0.01,-0.0145 0.01,-0.0186 z m -0.1083,-0.004 c 0,-0.0109 -9e-4,-0.0128 -0.01,-0.002 0,0.009 0,0.0114 -8e-4,0.0114 0,0 0.01,-0.004 0.01,-0.009 z m 0.2351,-0.008 c 0,-0.003 0,-0.005 0,-0.005 0,0 0,0.003 0,0.008 0,0.004 0,0.007 0,0.005 0,-10e-4 0,-0.005 0,-0.008 z m -0.278,-0.002 c 0,-0.004 4e-4,-0.007 0,-0.007 0,0 0,0.003 0,0.007 0,0.004 6e-4,0.007 0,0.007 8e-4,0 0,-0.003 0,-0.007 z m -0.2346,-0.028 c 10e-4,-0.005 0,-0.009 5e-4,-0.009 0,0 -0.013,0.0213 -0.013,0.0245 0,0.006 0.011,-0.007 0.012,-0.0153 z m 0.5331,-0.004 c 6e-4,-0.01 0,-0.0228 0,-0.029 0,-0.006 0,-0.009 -10e-5,-0.006 0,0.003 0,0.008 -0.01,0.0114 0,0.004 0,0.0115 0,0.0252 0,0.0233 0.01,0.0224 0.01,-0.002 z m -0.591,0.006 c 0,-0.003 0,-0.002 0,0.002 -10e-5,0.004 7e-4,0.006 0,0.005 0,-10e-4 0,-0.004 3e-4,-0.007 z m -0.1376,-0.005 c 0,-0.005 0.01,-0.0224 0.01,-0.038 0,-0.0169 0.01,-0.0311 0.011,-0.035 0.01,-0.007 0.01,-0.0215 0,-0.0215 -0.01,0 -0.018,0.0314 -0.02,0.0514 -6e-4,0.0102 0,0.021 -0.01,0.024 -0.01,0.007 -0.01,0.0288 -0.01,0.0288 0,0 0.01,-0.004 0.01,-0.01 z m -0.011,-0.0461 c 0,-0.009 -10e-5,-0.009 0,0.002 0,0.006 0,0.0135 0,0.0165 0,0.004 0,0.004 0,-0.002 0,-0.004 0,-0.0113 0,-0.0165 z m 0.1792,0.0107 c 0,-0.007 -9e-4,-0.007 -0.01,-0.003 0,0.003 -0.01,0.006 -0.01,0.008 0,0.002 0,0.003 0.01,0.003 0,0 0.01,-0.003 0.01,-0.008 z m -0.2033,-0.005 c 0,-0.003 0,-0.006 0,-0.006 -8e-4,0 0,0.003 0,0.006 0,0.003 0,0.006 0,0.006 0,0 0,-0.003 0,-0.006 z m 0.04,-0.0507 c 0,-0.004 0,-0.006 0,-0.005 0,10e-4 0,0.006 0,0.01 0,0.004 0,0.006 0,0.005 0,-0.001 0,-0.006 0,-0.01 z m 0.4056,-0.001 c 0,-0.005 0,-0.006 0,-0.006 0,0 -0.01,0.003 -0.01,0.006 0,0.003 6e-4,0.006 0,0.006 7e-4,0 0,-0.003 0.01,-0.006 z m 0.1887,-0.006 c 6e-4,-0.004 -5e-4,-0.007 0,-0.005 0,10e-4 0,0.006 0,0.0101 0,0.009 0,0.006 0.01,-0.005 z m -0.4271,-0.008 c 10e-5,-0.002 0,-0.003 0,-0.003 0,0 0,0.005 0,0.0102 2e-4,0.009 6e-4,0.009 0,0.003 0,-0.004 0,-0.009 0,-0.0102 z m 0.3402,-0.0208 c 0,-0.004 -0.01,0.005 -0.01,0.0121 0,0.0139 0.01,0.0151 0.01,0.002 0,-0.007 0,-0.013 0,-0.0137 z m -0.2712,-0.0149 c 0,-0.003 -0.01,0.004 -0.01,0.0118 1e-4,0.008 3e-4,0.008 0.01,-0.001 0,-0.005 0,-0.01 0,-0.0106 z m 0.3253,0.004 c -3e-4,-0.0125 -7e-4,-0.013 0,-0.005 0,0.0133 0,0.0186 0,0.0186 0,0 0,-0.006 0,-0.014 z m -0.3501,-0.014 c 0,-0.001 0,9.2e-4 0,0.005 0,0.005 0,0.006 0,0.002 0,-0.003 0,-0.006 0,-0.007 z m 0.2575,-0.007 c 0,-0.003 0,-0.006 0,-0.006 0,0 0,0.003 0,0.006 0,0.003 0,0.006 0,0.006 0,0 0,-0.003 0,-0.006 z m -0.4875,-0.002 c 0,-0.002 -8e-4,-0.004 0,-0.004 -9e-4,0 0,0.002 0,0.004 0,0.002 -5e-4,0.004 0,0.004 0,0 0,-0.002 0,-0.004 z m 0.2567,-0.0119 c 0,-0.006 0,-0.007 0,-0.004 0,0.002 0,0.006 0,0.008 0,0.006 0.01,0.005 0.01,-0.004 z m -0.083,-0.0424 c 0,-0.004 -0.011,0.002 -0.01,0.006 0,0.003 0,0.002 0.01,-2e-4 0,-0.002 0,-0.005 0,-0.006 z m -0.043,-0.0484 c 0,-0.009 0,-0.009 0,-0.004 0,0.003 0,0.007 0,0.01 0,0.006 0,0.005 0.01,-0.006 z m 0,-0.044 c 0,-0.007 0.01,-0.0149 0,-0.0177 0,-0.003 0,-7.2e-4 0,0.005 0,0.006 -0.01,0.0111 -0.01,0.0124 -0.01,0.002 -0.01,0.006 0,0.0104 0,0.004 0.01,0.003 0.014,-0.0102 z m 1.9299,3.39607 c 0,-0.007 0.01,-0.0156 0.012,-0.0156 0,0 0,0.005 0,0.0112 0,0.0123 -0.011,0.015 -0.011,0.004 z m -2.1472,-0.004 c 0,-0.002 0,-0.004 0,-0.004 0,0 0,0.002 0,0.004 0,0.002 0,0.004 0,0.004 -9e-4,0 0,-0.002 0,-0.004 z m -1.0379,-0.19568 c 2e-4,-0.004 10e-4,-0.005 0,-0.002 0,0.003 10e-4,0.006 -3e-4,0.007 0,10e-4 0,-9.6e-4 0,-0.005 z m 0.8494,-0.007 c 0,-0.007 2e-4,-0.0454 0,-0.0488 0,-10e-4 0,-3.4e-4 0.01,0.002 0.01,0.005 0,0.026 0,0.0303 0,0.001 0,0.007 -9e-4,0.0121 0,0.0107 0,0.0143 -0.01,0.004 z m 0.3188,-0.20453 c 0,-0.003 0.01,-0.006 0.01,-0.006 0,0 0,0.003 0,0.006 0,0.003 -0.01,0.006 -0.01,0.006 0,0 -5e-4,-0.003 0,-0.006 z m 2.075,-0.0114 c 0,-0.004 8e-4,-0.0111 0.01,-0.0179 l 0.01,-0.0116 v 0.0149 c 0,0.0174 -0.01,0.0236 -0.011,0.0147 z m -2.4937,-0.0723 c 0,-0.002 3e-4,-0.004 0,-0.004 0,0 0.01,0.002 0.01,0.004 0,0.002 0,0.004 0,0.004 0,0 0,-0.002 -0.01,-0.004 z m -0.1258,-0.0523 c 0,-0.005 10e-5,-0.008 0,-0.01 0.01,-0.003 0.013,0.006 0.01,0.0127 -0.01,0.007 -0.01,0.006 -0.012,-0.003 z m 3.4329,-0.12135 c 0,-0.0175 0.01,-0.0252 0.012,-0.0142 0,0.004 8e-4,0.005 0,0.003 0,-0.001 0,6.6e-4 0,0.005 0.01,0.008 0.01,0.018 0,0.0139 0,-0.002 0,-6.6e-4 0,0.004 0,0.005 4e-4,0.006 -0.01,0.006 -0.01,0 -0.01,-0.002 -0.01,-0.0174 z m -0.838,-0.21717 c 0,-0.002 0,-0.007 -0.01,-0.0107 -0.01,-0.006 -0.01,-0.007 0,-0.0164 0.011,-0.016 0.017,-0.0128 0.017,0.008 0,0.0101 0,0.0194 0,0.0207 0,10e-4 0,3.8e-4 0,-0.002 z m 0.6996,-0.0927 c 0,-0.009 0,-0.01 0,-0.002 0,0.003 5e-4,0.006 0,0.008 0,10e-4 0,-10e-4 0,-0.005 z m -0.6283,-0.23094 c 0,-0.005 8e-4,-0.007 0,-0.005 0,0.003 0,0.007 0,0.009 -10e-4,0.003 0,4.7e-4 0,-0.005 z m -0.6407,-0.0945 c 0,-0.005 0,-0.0103 0,-0.0116 0,-10e-4 0,0.002 0,0.007 0,0.005 0,0.0103 0,0.0116 0,10e-4 0,-0.002 0,-0.007 z m 0.7272,-0.0557 c 0,-0.007 0,-0.0256 0.01,-0.0276 0.01,-0.002 0.01,0.0233 0,0.0289 0,0.004 -0.01,0.003 -0.01,-10e-4 z m 0.2739,-0.0599 c 0,-0.008 10e-4,-0.01 0,-0.007 0,0.003 0,0.006 2e-4,0.011 0,0.006 0,0.006 0,-0.004 z m -0.9859,-0.71869 c 2e-4,-0.004 0,-0.005 0,-0.002 0,0.003 10e-4,0.006 -2e-4,0.007 0,0.001 0,-9.6e-4 0,-0.005 z m -2.9736,-0.39716 c 0,-0.005 0,-0.0118 0.01,-0.0158 0.01,-0.007 0.01,-0.007 0,0.004 0,0.006 0,0.0133 0,0.0158 -3e-4,0.009 -0.01,0.005 -0.01,-0.004 z m 2.5308,-0.18708 c 1e-4,-0.004 0,-0.005 0,-0.002 0,0.003 0,0.006 -3e-4,0.007 0,10e-4 0,-9.6e-4 0,-0.005 z m -0.8134,-0.0984 c 0,-0.002 0,-0.003 0.01,-0.002 0.01,0.003 0,0.005 0,0.005 0,0 0,-0.002 0,-0.004 z m -0.8168,-0.007 c 0,-0.004 0.01,-0.004 0.017,0 0.01,0.003 0.01,0.003 0,0.003 -0.01,1.5e-4 -0.012,-0.001 -0.012,-0.003 z m -7e-4,-0.0174 c 0,-10e-4 0.01,-9.5e-4 0.01,2.9e-4 0,10e-4 -10e-4,0.002 0,0.002 0,-1.8e-4 -0.01,-10e-4 0,-0.002 z m 4.3434,-0.0531 c 0,-0.004 0,-0.008 0,-0.008 0,0 0,0.002 0,0.005 0,0.003 0,0.006 0,0.008 0,10e-4 0,-10e-4 0,-0.005 z m -4.0728,-0.0607 c 0,-0.0186 0,-0.0204 0.01,-0.015 0,0.003 0,0.008 -3e-4,0.0174 -0.01,0.0189 -0.013,0.0172 -0.01,-0.002 z m 0.2362,-0.0669 c 0,-0.007 0.01,-0.0201 0.013,-0.0169 0,10e-4 4e-4,0.006 0,0.009 0,0.003 0,0.007 0,0.008 7e-4,10e-4 -5e-4,0.003 0,0.003 0,7.3e-4 0,-10e-4 0,-0.004 z m -0.016,-0.0528 c 0,-0.007 0.014,-0.008 0.012,-10e-4 -8e-4,0.003 0,0.005 -0.01,0.006 0,8.4e-4 -0.01,-5.7e-4 0,-0.005 z m 1.6405,-0.0434 c 0,-0.002 2e-4,-0.007 0,-0.0102 0.01,-0.006 0.01,-0.005 0.01,0.002 0,0.009 -0.01,0.0142 -0.01,0.008 z m 2.1852,-0.019 c 0,-0.0102 -2e-4,-0.0142 0.01,-0.0142 0.01,0 0.011,0.004 0.01,0.014 0,0.0107 -0.013,0.0108 -0.016,2.9e-4 z m -3.2586,-0.16473 c 0,-0.0114 0,-0.0123 0,-0.002 0,0.004 4e-4,0.008 0,0.01 0,0.001 0,-0.002 0,-0.007 z m -0.7891,-0.007 c 0,-0.0115 -9e-4,-0.0397 0,-0.0389 0.01,0.003 0.012,0.0398 0,0.0398 0,0 0,-4.2e-4 0,-9.3e-4 z m -0.4724,-0.0119 c 0,-0.003 0,-0.006 0,-0.006 0,0 0,0.002 0,0.004 0,0.002 0,0.005 0,0.006 0,10e-4 0,-3.1e-4 0,-0.004 z"
       id="path828"
       inkscape:connector-curvature="0" />
  </g>
</svg>
