<?xml version="1.0" standalone="no"?>
<!DOCTYPE svg PUBLIC "-//W3C//DTD SVG 20010904//EN"
 "http://www.w3.org/TR/2001/REC-SVG-20010904/DTD/svg10.dtd">
<svg version="1.0" xmlns="http://www.w3.org/2000/svg"
 width="784.000000pt" height="784.000000pt" viewBox="0 0 784.000000 784.000000"
 preserveAspectRatio="xMidYMid meet">
<metadata>
Created by potrace 1.11, written by Peter Selinger 2001-2013
</metadata>
<g transform="translate(0.000000,784.000000) scale(0.100000,-0.100000)"
fill="#000000" stroke="none">
<path d="M2969 7836 c-2 -2 -17 -6 -34 -8 -67 -9 -188 -60 -244 -102 -52 -40
-139 -142 -171 -200 -79 -142 -74 -39 -75 -1618 0 -1575 7 -1441 -71 -1291
-21 41 -45 79 -51 85 -7 6 -13 14 -13 19 0 5 -27 54 -60 110 -33 55 -60 102
-60 104 0 1 -25 45 -56 96 -31 51 -60 103 -65 114 -5 11 -18 34 -29 50 -11 17
-23 37 -27 45 -3 8 -14 26 -23 40 -15 23 -46 77 -96 170 -11 19 -22 37 -26 38
-5 2 -8 10 -8 17 0 8 -6 20 -14 27 -7 8 -21 29 -30 47 -23 44 -111 131 -177
175 -91 60 -188 89 -304 90 -125 1 -167 -6 -258 -44 -84 -35 -98 -44 -182
-122 -69 -65 -127 -155 -150 -237 -9 -31 -20 -63 -24 -71 -15 -29 -5 -232 14
-290 10 -30 19 -57 19 -60 1 -4 116 -210 146 -260 54 -90 110 -193 110 -200 0
-6 5 -10 10 -10 6 0 10 -5 10 -10 0 -6 18 -40 40 -76 22 -36 40 -70 40 -75 0
-5 5 -9 10 -9 6 0 10 -5 10 -10 0 -6 49 -95 109 -198 60 -103 118 -203 128
-222 11 -19 40 -69 65 -110 24 -41 47 -82 51 -90 4 -8 18 -33 32 -55 14 -22
28 -47 32 -55 4 -8 20 -37 37 -65 l31 -50 5 -1715 5 -1715 26 -38 c15 -21 28
-38 30 -37 2 1 17 -4 33 -10 33 -12 3284 -9 3346 3 19 4 67 12 105 18 76 12
268 55 300 69 11 4 63 22 115 40 111 37 270 111 385 177 44 26 82 50 85 53 3
3 23 17 45 30 41 25 167 120 220 167 323 282 544 609 689 1018 25 69 75 251
80 290 4 27 17 105 23 130 2 11 5 48 8 82 2 35 5 66 7 70 2 5 5 49 7 99 l3 91
-49 31 c-49 31 -132 70 -168 78 -11 3 -33 8 -50 11 -29 5 -55 10 -65 13 -3 0
13 10 35 22 70 36 156 110 195 168 8 12 22 32 31 44 26 35 28 50 12 122 -29
136 -65 252 -119 390 -36 92 -132 278 -183 354 -23 34 -41 64 -41 66 0 3 -5
10 -10 17 -6 7 -30 39 -55 72 -87 115 -110 141 -229 260 -140 139 -164 159
-306 259 -163 114 -342 209 -520 275 -63 24 -119 44 -125 45 -5 2 -30 8 -55
15 -25 7 -52 15 -60 17 -12 2 -124 27 -180 39 -8 2 -23 4 -32 4 -10 1 -18 5
-18 10 0 5 33 65 73 133 40 68 76 130 80 138 4 8 21 38 37 65 17 28 35 59 40
70 6 11 19 34 29 50 43 69 131 228 131 236 0 5 4 9 10 9 5 0 12 11 16 25 3 14
10 25 14 25 4 0 10 8 13 18 6 17 19 40 96 170 54 92 96 178 106 217 5 17 10
37 13 45 13 40 9 232 -5 277 -8 26 -16 53 -17 58 -4 19 -65 134 -83 156 -200
247 -524 312 -788 156 -38 -22 -91 -63 -117 -90 -52 -52 -108 -129 -108 -146
0 -6 -4 -11 -8 -11 -5 0 -14 -16 -22 -35 -8 -19 -17 -35 -22 -35 -4 0 -8 -4
-8 -9 0 -8 -74 -140 -118 -211 -9 -14 -15 -27 -15 -30 0 -3 -7 -16 -17 -30
-30 -42 -390 -670 -390 -680 0 -6 -4 -10 -9 -10 -5 0 -11 -8 -14 -17 -6 -17
-42 -81 -73 -130 -7 -12 -23 -38 -34 -57 -23 -42 -32 -57 -129 -226 -39 -69
-76 -132 -81 -140 -5 -8 -27 -46 -49 -85 l-41 -70 0 1395 c0 767 -3 1413 -6
1435 -18 123 -79 241 -173 336 -114 114 -236 167 -402 175 -52 3 -97 3 -100 0z
m2021 -4080 c25 -4 51 -9 59 -12 8 -3 30 -7 50 -10 20 -3 44 -10 54 -15 9 -5
17 -7 17 -5 0 3 43 -10 96 -29 208 -75 369 -179 537 -347 64 -65 117 -122 117
-127 0 -5 7 -16 15 -25 24 -23 108 -164 143 -238 55 -115 110 -301 115 -386 0
-13 60 -57 107 -79 29 -14 108 -38 163 -50 l38 -8 -38 -20 c-82 -42 -158 -112
-219 -203 -32 -47 -46 -88 -89 -262 -2 -8 -4 -15 -5 -15 -1 0 -3 -10 -5 -21
-3 -12 -10 -34 -16 -50 -7 -16 -13 -31 -14 -34 -15 -45 -79 -174 -87 -178 -5
-2 -8 -8 -8 -13 0 -12 -68 -114 -119 -179 -61 -78 -210 -217 -300 -279 -47
-32 -90 -60 -96 -61 -5 -1 -17 -7 -25 -14 -29 -24 -149 -76 -251 -110 -240
-78 -505 -92 -739 -40 -36 8 -75 17 -88 19 -12 3 -59 19 -105 35 -446 163
-788 547 -898 1008 -21 87 -22 95 -34 202 -4 36 -9 68 -12 73 -2 4 0 7 6 7 7
0 8 9 3 23 -5 12 -7 33 -5 47 2 14 5 57 7 95 7 113 37 255 78 370 36 101 134
281 199 368 56 74 187 211 249 261 173 139 427 255 636 291 22 4 54 8 73 10
18 2 35 6 37 8 7 6 303 0 354 -7z"/>
</g>
</svg>
